<?xml version="1.0" encoding="UTF-8" standalone="no"?>
<svg
   xmlns:dc="http://purl.org/dc/elements/1.1/"
   xmlns:cc="http://creativecommons.org/ns#"
   xmlns:rdf="http://www.w3.org/1999/02/22-rdf-syntax-ns#"
   xmlns:svg="http://www.w3.org/2000/svg"
   xmlns="http://www.w3.org/2000/svg"
   xmlns:sodipodi="http://sodipodi.sourceforge.net/DTD/sodipodi-0.dtd"
   xmlns:inkscape="http://www.inkscape.org/namespaces/inkscape"
   width="140"
   height="33"
   fill="none"
   version="1.1"
   id="svg8"
   sodipodi:docname="logo.svg"
   inkscape:version="1.0.1 (3bc2e813f5, 2020-09-07)">
  <metadata
     id="metadata14">
    <rdf:RDF>
      <cc:Work
         rdf:about="">
        <dc:format>image/svg+xml</dc:format>
        <dc:type
           rdf:resource="http://purl.org/dc/dcmitype/StillImage" />
      </cc:Work>
    </rdf:RDF>
  </metadata>
  <defs
     id="defs12" />
  <sodipodi:namedview
     pagecolor="#ffffff"
     bordercolor="#666666"
     borderopacity="1"
     objecttolerance="10"
     gridtolerance="10"
     guidetolerance="10"
     inkscape:pageopacity="0"
     inkscape:pageshadow="2"
     inkscape:window-width="1920"
     inkscape:window-height="1027"
     id="namedview10"
     showgrid="false"
     inkscape:zoom="3.7214286"
     inkscape:cx="160.00451"
     inkscape:cy="-21.434732"
     inkscape:window-x="1072"
     inkscape:window-y="393"
     inkscape:window-maximized="1"
     inkscape:current-layer="svg8"
     inkscape:document-rotation="0" />
  <path
     style="fill:#874c56;stroke-width:0.10142"
     d="m 21.235085,7.9390856 1.07627,3.3824704 c -0.34676,0.11034 -0.65467,0.26288 -0.82353,0.40801 -0.0594,0.0511 -0.36623,0.36948 -0.54473,1.60102 -0.14422,0.99524 -0.14311,2.13084 -0.14199,3.13278 l 10e-5,0.243 c 0,3.26016 -2.64159,5.99506 -6.17112,6.69425 v 6.20591 h -3.54971 v -6.20581 c -3.5294303,-0.69909 -6.1711303,-3.43409 -6.1711303,-6.69425 l 10e-5,-0.243 c 10e-4,-1.00193 0.002,-2.13744 -0.14199,-3.13278 -0.1785,-1.23164 -0.48529,-1.5499 -0.54493,-1.60132 -0.16866,-0.14493 -0.47647,-0.29747 -0.82323,-0.40781 l 1.07658,-3.3824704 c 0.56694,0.18032 1.38469,0.51734 2.06086,1.09838 1.92881,1.6583204 1.92526,4.9940404 1.92273,7.4297504 l -2e-4,0.23925 c 0,1.32556 1.0932103,2.4988 2.6214103,3.02507 V 4.2514356 h 3.54971 V 19.731636 c 1.5282,-0.52627 2.62141,-1.6995 2.62141,-3.02507 l -1e-4,-0.23925 c -0.003,-2.43571 -0.006,-5.77142 1.92252,-7.4295504 0.67628,-0.58124 1.49403,-0.91826 2.06097,-1.09868 z"
     id="path878" />
  <g
     id="g880"
     transform="matrix(0.10142035,0,0,0.10142035,9.7018773,38.109401)" />
  <g
     id="g882"
     transform="matrix(0.10142035,0,0,0.10142035,9.7018773,38.109401)" />
  <g
     id="g884"
     transform="matrix(0.10142035,0,0,0.10142035,9.7018773,38.109401)" />
  <g
     id="g886"
     transform="matrix(0.10142035,0,0,0.10142035,9.7018773,38.109401)" />
  <g
     id="g888"
     transform="matrix(0.10142035,0,0,0.10142035,9.7018773,38.109401)" />
  <g
     id="g890"
     transform="matrix(0.10142035,0,0,0.10142035,9.7018773,38.109401)" />
  <g
     id="g892"
     transform="matrix(0.10142035,0,0,0.10142035,9.7018773,38.109401)" />
  <g
     id="g894"
     transform="matrix(0.10142035,0,0,0.10142035,9.7018773,38.109401)" />
  <g
     id="g896"
     transform="matrix(0.10142035,0,0,0.10142035,9.7018773,38.109401)" />
  <g
     id="g898"
     transform="matrix(0.10142035,0,0,0.10142035,9.7018773,38.109401)" />
  <g
     id="g900"
     transform="matrix(0.10142035,0,0,0.10142035,9.7018773,38.109401)" />
  <g
     id="g902"
     transform="matrix(0.10142035,0,0,0.10142035,9.7018773,38.109401)" />
  <g
     id="g904"
     transform="matrix(0.10142035,0,0,0.10142035,9.7018773,38.109401)" />
  <g
     id="g906"
     transform="matrix(0.10142035,0,0,0.10142035,9.7018773,38.109401)" />
  <g
     id="g908"
     transform="matrix(0.10142035,0,0,0.10142035,9.7018773,38.109401)" />
  <text
     xml:space="preserve"
     style="font-style:normal;font-variant:normal;font-weight:normal;font-stretch:normal;font-size:42.6667px;line-height:1.35;font-family:'Palace Script MT';-inkscape-font-specification:'Palace Script MT';fill:#000000;fill-opacity:1;stroke:#000000;stroke-width:0.60371;stroke-opacity:1"
     x="23.488607"
     y="27.225365"
     id="text1612"
     transform="scale(0.90461823,1.1054387)"><tspan
       sodipodi:role="line"
       x="23.488607"
       y="27.225365"
       id="tspan1614"
       style="font-style:normal;font-variant:normal;font-weight:normal;font-stretch:normal;font-size:42.6667px;font-family:'Palace Script MT';-inkscape-font-specification:'Palace Script MT';stroke:#000000;stroke-width:0.60371;stroke-opacity:1">Núria León</tspan></text>
</svg>
