<svg width="230" height="170"
	xmlns="http://www.w3.org/2000/svg" xml:space="preserve">

	<g>
		<title>Layer 1</title>
		<path id="svg_1" fill="#76323f" d="m189.37757,39.57a2.756,2.756 0 0 1 -2.755,-2.755c0,-7.257 -6.131,-13.387 -13.387,-13.387a2.756,2.756 0 0 1 0,-5.511c7.256,0 13.387,-6.13 13.387,-13.387a2.756,2.756 0 0 1 5.51,0c0,7.256 6.13,13.387 13.387,13.387a2.756,2.756 0 0 1 0,5.51c-7.256,0 -13.387,6.131 -13.387,13.388a2.755,2.755 0 0 1 -2.755,2.755zm-6.47,-18.898a19.59,19.59 0 0 1 6.47,6.47a19.587,19.587 0 0 1 6.47,-6.47a19.59,19.59 0 0 1 -6.47,-6.47a19.59,19.59 0 0 1 -6.47,6.47zm-163.24,145.368a2.755,2.755 0 0 1 -2.755,-2.755c0,-7.257 -6.131,-13.387 -13.387,-13.387a2.755,2.755 0 1 1 0,-5.511c7.256,0 13.387,-6.13 13.387,-13.387a2.755,2.755 0 0 1 5.51,0c0,7.256 6.131,13.387 13.387,13.387a2.755,2.755 0 0 1 0,5.51c-7.256,0 -13.387,6.131 -13.387,13.388a2.755,2.755 0 0 1 -2.755,2.755zm-6.47,-18.898a19.59,19.59 0 0 1 6.47,6.47a19.59,19.59 0 0 1 6.47,-6.47a19.591,19.591 0 0 1 -6.47,-6.47a19.59,19.59 0 0 1 -6.47,6.47zm181.08,21.408a2.756,2.756 0 0 1 -2.058,-0.923l-20.262,-22.762a0.262,0.262 0 0 0 -0.196,-0.088l-38.21,0c-11.448,0 -20.728,-9.28 -20.728,-20.728l0,-38.824c0,-11.45 9.282,-20.731 20.731,-20.731l74.482,0c11.448,0 20.728,9.28 20.728,20.728l0,38.827c0,11.448 -9.28,20.728 -20.728,20.728l-6.588,0a0.262,0.262 0 0 0 -0.257,0.211l-4.177,21.17c-0.135,0.68 -0.451,1.336 -0.992,1.77a2.77,2.77 0 0 1 -1.745,0.622zm-60.726,-98.544c-8.404,0 -15.217,6.813 -15.217,15.217l0,38.827c0,8.404 6.813,15.217 15.217,15.217l39.447,0c0.861,0 1.681,0.368 2.254,1.011l17.045,19.148c0.144,0.162 0.41,0.09 0.453,-0.123l3.473,-17.603a3.017,3.017 0 0 1 2.96,-2.434l8.854,0c8.404,0 15.217,-6.812 15.217,-15.217l0,-38.824c0,-8.406 -6.815,-15.22 -15.22,-15.22l-74.482,0l-0.001,0.001z" class="st1"/>
		<path id="svg_2" fill="#76323f" d="m67.55757,121.77a2.756,2.756 0 0 1 -2.703,-2.222l-4.25,-21.55l-7.065,0c-11.287,0 -20.47,-9.181 -20.47,-20.466l0,-39.347c0,-11.285 9.183,-20.466 20.47,-20.466l75.006,0c11.285,0 20.466,9.18 20.466,20.466l0,29.066a2.756,2.756 0 0 1 -2.755,2.755l-12.964,0c-8.247,0 -14.955,6.71 -14.955,14.958l0,10.278a2.755,2.755 0 0 1 -2.756,2.756l-25.622,0l-20.343,22.849a2.756,2.756 0 0 1 -2.058,0.923l-0.001,0zm-14.018,-98.541c-8.248,0 -14.958,6.709 -14.958,14.955l0,39.347c0,8.246 6.71,14.955 14.958,14.955l9.33,0c1.317,0 2.45,0.931 2.704,2.222l3.615,18.331l17.477,-19.63a2.756,2.756 0 0 1 2.058,-0.923l24.103,0l0,-7.522c0,-11.287 9.18,-20.47 20.465,-20.47l10.21,0l0,-26.31c0,-8.246 -6.71,-14.955 -14.956,-14.955l-75.006,0z" class="st1"/>
		<path id="svg_3" fill="#76323f" d="m88.03757,34.63c-6.343,0.012 -11.314,2.467 -15.642,7.727a1.737,1.737 0 0 0 0.14,2.358l3.113,2.98a1.737,1.737 0 0 0 2.516,-0.122c3.058,-3.55 6.07,-5.137 9.766,-5.144c4.282,-0.008 7.163,2.497 7.17,6.232c0.01,5.807 -6.52,6.837 -10.415,6.934l-0.696,0.018l-0.795,0.798a1.736,1.736 0 0 0 -0.499,1.39l0.932,9.867a1.737,1.737 0 0 0 1.733,1.574l3.107,-0.006a1.737,1.737 0 0 0 1.726,-1.58l0.363,-3.994a1.722,1.722 0 0 1 1.285,-1.518c7.332,-1.844 11.618,-6.823 11.606,-13.681c-0.015,-8.162 -6.351,-13.85 -15.41,-13.833zm-4.61,46.68l6.96,-0.013a1.06,1.06 0 0 0 1.058,-1.061l-0.015,-7.752a1.06,1.06 0 0 0 -1.061,-1.057l-6.96,0.012a1.06,1.06 0 0 0 -1.057,1.062l0.014,7.752a1.06,1.06 0 0 0 1.061,1.057zm66.16,38.42a2.931,2.931 0 0 1 -2.931,2.931l-8.063,0a3.193,3.193 0 0 1 -3.193,-3.193l0,-7.8a3.193,3.193 0 0 1 3.193,-3.194l7.801,0a3.193,3.193 0 0 1 3.193,3.193l0,8.063m25.3,2.93l-7.798,0a3.195,3.195 0 0 1 -3.194,-3.195l0,-7.798a3.195,3.195 0 0 1 3.194,-3.194l7.798,0a3.195,3.195 0 0 1 3.195,3.195l0,7.797a3.195,3.195 0 0 1 -3.195,3.195zm29.52,0l-7.798,0a3.195,3.195 0 0 1 -3.194,-3.195l0,-7.798a3.195,3.195 0 0 1 3.194,-3.194l7.798,0a3.195,3.195 0 0 1 3.195,3.195l0,7.797a3.195,3.195 0 0 1 -3.195,3.195z" class="st1"/>
	</g>
</svg>