<svg width="210" height="187"
	xmlns="http://www.w3.org/2000/svg" xml:space="preserve">

	<g>
		<title>Layer 1</title>
		<path id="svg_1" fill="#76323f" d="m201.6,150.02l-140.08,0a2.755,2.755 0 0 1 -2.44,-1.477l-38.466,-73.431a20.944,20.944 0 0 1 -15.66,-9.144a20.947,20.947 0 0 1 -2.106,-19.544a5.788,5.788 0 0 1 5.4,-3.656l16.03,0c6.484,0 12.297,3.61 15.17,9.421l34.545,69.854l120.82,0c4.772,0 9.14,2.411 11.684,6.45a13.735,13.735 0 0 1 0.769,13.324l-3.179,6.637a2.756,2.756 0 0 1 -2.485,1.565l-0.002,0.001zm-138.41,-5.51l136.68,0l2.43,-5.073a8.254,8.254 0 0 0 -0.463,-8.006a8.253,8.253 0 0 0 -7.021,-3.876l-122.53,0a2.755,2.755 0 0 1 -2.47,-1.534l-35.302,-71.388a11.344,11.344 0 0 0 -10.23,-6.354l-16.03,0a0.304,0.304 0 0 0 -0.284,0.193c-1.935,4.84 -1.37,10.09 1.553,14.408c2.922,4.316 7.588,6.791 12.8,6.791c1.024,0 1.965,0.569 2.44,1.477l38.43,73.362l-0.003,0z" class="st1"/>
		<path id="svg_2" fill="#76323f" d="m54.1,185.88a2.755,2.755 0 0 1 -2.498,-3.916l16.64,-35.866a2.755,2.755 0 1 1 4.999,2.319l-16.64,35.866a2.756,2.756 0 0 1 -2.5,1.597l-0.001,0zm145.7,0a2.755,2.755 0 0 1 -2.501,-1.596l-16.64,-35.866a2.755,2.755 0 1 1 5,-2.32l16.639,35.866a2.755,2.755 0 0 1 -2.498,3.916z" class="st1"/>
		<path id="svg_3" fill="#76323f" d="m191.6,171.28l-29.385,0a2.756,2.756 0 0 1 0,-5.51l29.385,0a2.756,2.756 0 0 1 0,5.51zm-42.2,0l-15.844,0a2.756,2.756 0 0 1 0,-5.51l15.844,0a2.756,2.756 0 0 1 0,5.51zm-27.5,0l-60.728,0a2.756,2.756 0 0 1 0,-5.51l60.728,0a2.756,2.756 0 0 1 0,5.51zm41.5,-117.79c-3.037,0 -5.957,-0.791 -8.542,-2.302a21.64,21.64 0 0 1 -9.724,2.302c-6.482,0 -12.581,-2.926 -16.66,-7.826a17.827,17.827 0 0 1 -12.227,4.853c-9.835,0 -17.836,-8.001 -17.836,-17.836c0,-8.972 6.659,-16.418 15.294,-17.655a10.525,10.525 0 0 1 -0.001,-0.187c0,-7.726 6.285,-14.013 14.012,-14.013c6.166,0 11.51,4.077 13.338,9.732a21.623,21.623 0 0 1 4.078,-0.386c7.12,0 13.795,3.542 17.818,9.352c0.15,-0.005 0.3,-0.007 0.449,-0.007c9.366,0 16.986,7.62 16.986,16.986s-7.62,16.986 -16.986,16.986l0.001,0.001zm-8.424,-8.273c0.575,0 1.15,0.18 1.633,0.536a11.38,11.38 0 0 0 6.791,2.226c6.327,0 11.475,-5.147 11.475,-11.475c0,-6.327 -5.148,-11.475 -11.475,-11.475c-0.488,0 -1.001,0.035 -1.524,0.104a2.753,2.753 0 0 1 -2.748,-1.354c-2.88,-4.994 -8.243,-8.096 -13.994,-8.096c-1.806,0 -3.587,0.3 -5.293,0.892a2.753,2.753 0 0 1 -3.65,-2.393c-0.336,-4.398 -4.058,-7.844 -8.474,-7.844c-4.688,0 -8.501,3.814 -8.501,8.502c0,0.709 0.088,1.415 0.26,2.099a2.755,2.755 0 0 1 -2.775,3.43c-0.15,-0.006 -0.301,-0.013 -0.453,-0.013c-6.796,0 -12.325,5.53 -12.325,12.325s5.529,12.325 12.325,12.325c4.073,0 7.88,-2.012 10.183,-5.381a2.737,2.737 0 0 1 2.387,-1.199a2.755,2.755 0 0 1 2.281,1.388a16.195,16.195 0 0 0 14.035,8.166c2.975,0 5.881,-0.815 8.406,-2.358a2.75,2.75 0 0 1 1.436,-0.405zm-62.676,25.273c-6.204,0 -11.251,-5.047 -11.251,-11.251s5.047,-11.252 11.251,-11.252s11.251,5.047 11.251,11.252c0,6.204 -5.047,11.251 -11.251,11.251zm0,-16.992a5.747,5.747 0 0 0 -5.74,5.74a5.747,5.747 0 0 0 5.74,5.741a5.747,5.747 0 0 0 5.74,-5.74a5.747,5.747 0 0 0 -5.74,-5.741zm-22.9,29.132c-5.033,0 -9.127,-4.094 -9.127,-9.127s4.094,-9.128 9.127,-9.128s9.127,4.095 9.127,9.128s-4.094,9.127 -9.127,9.127zm0,-12.744c-1.994,0 -3.617,1.622 -3.617,3.616s1.623,3.617 3.617,3.617s3.616,-1.622 3.616,-3.617s-1.622,-3.616 -3.616,-3.616zm-0.9,66.484a2.756,2.756 0 0 1 -2.536,-3.83l3.788,-8.955a2.756,2.756 0 0 1 5.076,2.147l-3.789,8.956a2.757,2.757 0 0 1 -2.539,1.682z" class="st1"/>
	</g>
</svg>