<?xml version="1.0" encoding="utf-8"?>
<!-- Generator: Adobe Illustrator 21.0.0, SVG Export Plug-In . SVG Version: 6.00 Build 0)  -->
<svg version="1.1" xmlns="http://www.w3.org/2000/svg" xmlns:xlink="http://www.w3.org/1999/xlink" x="0px" y="0px" width="1400px"
	 height="980px" viewBox="0 0 1400 980" style="enable-background:new 0 0 1400 980;" xml:space="preserve">
<style type="text/css">
	.st0{fill:#FFFFFF;}
	.st1{fill:#557380;}
</style>
<g id="Layer_2">
	<rect class="st0" width="1400" height="980"/>
</g>
<g id="Layer_1">
	<g>
		<g>
			<path class="st1" d="M300.9042,596.5156c-1.5219,0-2.7554-1.2338-2.7554-2.7554V564.429l-24.438-0.6797
				c-0.7553-0.0212-1.4689-0.3515-1.9737-0.9136c-0.5047-0.5624-0.7565-1.3074-0.6963-2.0605l2.0674-25.8476l-18.3625-4.006
				c-0.7423-0.1621-1.3848-0.6232-1.7756-1.2748c-0.3907-0.6512-0.4953-1.4352-0.2888-2.1664l8.8798-31.4398l-0.4112-2.7366
				c-2.4932-16.7054,4.3827-33.2043,17.9441-43.0604c0.8111-0.5854,1.3814-0.965,1.8565-1.236
				c9.4329-5.4427,20.2092-8.4297,31.152-8.6309c2.632-0.0494,5.2915,0.0627,7.9028,0.3345
				c1.5136,0.1574,2.613,1.5121,2.4556,3.0257c-0.1574,1.5136-1.5129,2.6132-3.0257,2.4556
				c-2.3883-0.2484-4.8208-0.3503-7.2301-0.3059c-10.0142,0.1841-19.8732,2.9164-28.5127,7.9013
				c-0.3022,0.1724-0.745,0.4707-1.3661,0.9189c-11.886,8.6384-17.9148,23.1173-15.7265,37.7811l0.4992,3.3208
				c0.0582,0.3868,0.0333,0.7817-0.0732,1.1584l-8.2456,29.1939l17.8537,3.895c1.3468,0.2939,2.2692,1.5378,2.1594,2.9118
				l-2.0279,25.3531l24.2154,0.6737c1.4912,0.0417,2.6787,1.2623,2.6787,2.7544v32.0109
				C303.6596,595.2819,302.4261,596.5156,300.9042,596.5156z"/>
			<path class="st1" d="M351.0376,557.4093c-0.8291,0-1.6487-0.3724-2.191-1.0821c-0.9243-1.2089-0.6934-2.938,0.5157-3.8624
				c11.076-8.4674,18.8537-20.5748,21.9001-34.0926c0.3347-1.4844,1.8091-2.415,3.2938-2.0824
				c1.4845,0.3347,2.4167,1.8093,2.0822,3.2939c-3.3301,14.7761-11.8282,28.0083-23.9293,37.259
				C352.2097,557.2246,351.6212,557.4093,351.0376,557.4093z"/>
			<path class="st1" d="M289.6053,548.3095c-0.0052,0-0.0104,0-0.0158,0l-14.5754-0.0814c-1.5217-0.0084-2.7484-1.2489-2.74-2.7709
				c0.0086-1.5163,1.2407-2.7399,2.7551-2.7399c0.0052,0,0.0104,0,0.0156,0l14.5755,0.0814
				c1.5218,0.0084,2.7485,1.2488,2.7401,2.7709C292.3519,547.0859,291.1198,548.3095,289.6053,548.3095z"/>
			<path class="st1" d="M350.9905,599.9034c-1.5219,0-2.7554-1.2338-2.7554-2.7554v-51.5939c0-1.5217,1.2336-2.7554,2.7554-2.7554
				c1.5218,0,2.7554,1.2337,2.7554,2.7554v51.5939C353.7459,598.6696,352.5124,599.9034,350.9905,599.9034z"/>
			<path class="st1" d="M400.1162,548.2688c-0.3239,0-0.6491-0.0141-0.9756-0.0424c-2.9384-0.256-5.6006-1.6414-7.4965-3.9014
				l-27.7488-33.0318c-5.7057,2.6579-11.7756,3.9434-17.7873,3.9434c-12.6241,0.0007-25.002-5.6638-33.2783-16.1773
				c-13.7704-17.4868-11.5504-42.815,5.0539-57.6616c0.3907-0.3522,0.8167-0.7196,1.258-1.0847
				c8.6561-7.1531,19.5809-10.5341,30.7668-9.5179c11.1914,1.0156,21.3352,6.3149,28.5631,14.9214
				c6.2668,7.459,9.7851,16.9229,9.9068,26.6479c0.1105,8.8347-2.5671,17.5302-7.5759,24.7265l27.7478,33.0345
				c1.6688,1.9862,2.5881,4.5068,2.5881,7.0971c0,3.2744-1.4359,6.3574-3.9394,8.4583
				C405.1913,547.3671,402.7067,548.2688,400.1162,548.2688z M364.6082,505.1047c0.7935,0,1.5726,0.3421,2.111,0.9828
				l29.1457,34.6944c0.9504,1.1328,2.283,1.8264,3.7535,1.9542c1.4717,0.1308,2.9049-0.325,4.0371-1.2758
				c1.2534-1.0518,1.9719-2.5963,1.9719-4.2377c0-1.2957-0.4605-2.5573-1.2967-3.5519c-0.0002-0.0003-0.0003-0.0007-0.0003-0.0007
				l-29.1422-34.6944c-0.8363-0.9956-0.8628-2.4406-0.0632-3.4661c5.0975-6.5391,7.8472-14.7344,7.7427-23.076
				c-0.1058-8.4556-3.1656-16.6849-8.6159-23.1724c-6.2867-7.4856-15.1088-12.0943-24.8417-12.9776
				c-9.7287-0.8828-19.2301,2.0566-26.7567,8.2766c-0.3856,0.319-0.742,0.6263-1.0883,0.9384
				c-14.4488,12.9193-16.3803,34.9453-4.4057,50.1519c11.0333,14.0149,30.4445,18.1265,46.157,9.7765
				C363.7256,505.2096,364.1691,505.1047,364.6082,505.1047z M346.3498,503.0112c-8.5118,0-16.9666-3.6138-22.8563-10.6241
				c-10.5715-12.5908-8.9321-31.4363,3.654-42.0104c2.6548-2.231,5.6314-3.9616,8.8468-5.1436
				c11.7647-4.3469,25.0936-0.8118,33.164,8.7979c7.0885,8.4407,8.9442,20.0453,4.8425,30.2856
				c-1.8054,4.5169-4.744,8.572-8.4973,11.7247c-0.0002,0-0.0003,0.0003-0.0005,0.0003
				C359.9256,500.7243,353.1195,503.0112,346.3498,503.0112z M346.2869,448.9051c-2.8136,0-5.6513,0.488-8.3868,1.4988
				c-2.619,0.9628-5.0425,2.3727-7.2076,4.1918c-10.2603,8.6205-11.5967,23.9833-2.9791,34.2469
				c8.6191,10.2595,23.9821,11.5955,34.246,2.9784l-0.0005,0.0003c3.0605-2.5704,5.4552-5.8734,6.9254-9.5518
				c3.3452-8.3517,1.8328-17.8132-3.9461-24.6944C360.2351,451.975,353.3403,448.9051,346.2869,448.9051z M363.7312,493.9313h0.0035
				H363.7312z"/>
			<path class="st1" d="M346.3497,503.0112c-8.5118,0-16.9664-3.6138-22.8562-10.6241
				c-10.5715-12.5908-8.9321-31.4363,3.654-42.0104c2.6548-2.231,5.6314-3.9616,8.8468-5.1436
				c11.7647-4.3469,25.0936-0.8118,33.164,8.7979c7.0887,8.4407,8.9442,20.0453,4.8425,30.2856
				c-1.8062,4.5182-4.7445,8.5724-8.4973,11.7247C359.9258,500.724,353.1193,503.0112,346.3497,503.0112z M346.2869,448.9051
				c-2.8136,0-5.6513,0.488-8.3868,1.4988c-2.619,0.9628-5.0425,2.3727-7.2076,4.1918
				c-10.2603,8.6205-11.5967,23.9833-2.9791,34.2469c8.6191,10.2595,23.9821,11.5955,34.246,2.9784
				c3.06-2.5701,5.4547-5.8731,6.9249-9.5515c0.0004-0.0007,0.0005-0.0013,0.0009-0.002c3.3444-8.3497,1.832-17.8112-3.947-24.6924
				C360.2351,451.975,353.3403,448.9051,346.2869,448.9051z"/>
			<g>
				<path class="st1" d="M241.5886,466.7348c-1.5218,0-2.7554-1.2338-2.7554-2.7554c0-6.8965-5.8263-12.7226-12.7228-12.7226
					c-1.5218,0-2.7554-1.2336-2.7554-2.7554s1.2336-2.7554,2.7554-2.7554c6.8965,0,12.7228-5.8263,12.7228-12.7228
					c0-1.5218,1.2336-2.7554,2.7554-2.7554c1.5219,0,2.7554,1.2336,2.7554,2.7554c0,6.8965,5.8263,12.7228,12.7228,12.7228
					c1.5218,0,2.7554,1.2336,2.7554,2.7554s-1.2336,2.7554-2.7554,2.7554c-6.8965,0-12.7228,5.8262-12.7228,12.7226
					C244.3441,465.501,243.1105,466.7348,241.5886,466.7348z M235.599,448.5013c2.4176,1.5117,4.4779,3.5721,5.9896,5.9897
					c1.5117-2.4176,3.5721-4.4779,5.9897-5.9897c-2.4176-1.5117-4.4779-3.5721-5.9897-5.9897
					C240.0769,444.9292,238.0165,446.9896,235.599,448.5013z"/>
			</g>
			<g>
				<path class="st1" d="M384.0791,437.0688c-1.5219,0-2.7554-1.2336-2.7554-2.7554c0-6.8965-5.8263-12.7228-12.7228-12.7228
					c-1.5218,0-2.7554-1.2336-2.7554-2.7554c0-1.5218,1.2336-2.7554,2.7554-2.7554c6.8965,0,12.7228-5.8264,12.7228-12.7228
					c0-1.5219,1.2336-2.7554,2.7554-2.7554s2.7554,1.2336,2.7554,2.7554c0,6.8965,5.8263,12.7228,12.7228,12.7228
					c1.5218,0,2.7554,1.2336,2.7554,2.7554c0,1.5219-1.2336,2.7554-2.7554,2.7554c-6.8965,0-12.7228,5.8264-12.7228,12.7228
					C386.8345,435.8352,385.601,437.0688,384.0791,437.0688z M378.0894,418.8351c2.4176,1.5117,4.4779,3.5721,5.9897,5.9897
					c1.5117-2.4175,3.5721-4.4779,5.9897-5.9897c-2.4176-1.5117-4.4779-3.5721-5.9897-5.9896
					C382.5674,415.263,380.507,417.3233,378.0894,418.8351z"/>
			</g>
		</g>
		<g>
			<path class="st1" d="M1089.1208,602.3735c-0.004,0-0.0078,0-0.0115,0c-1.5216-0.006-2.7504-1.2449-2.7443-2.7665l0.0659-16.4387
				c0.006-1.518,1.2388-2.7443,2.755-2.7443c0.004,0,0.0078,0,0.0115,0c1.5217,0.006,2.7504,1.2449,2.7444,2.7665l-0.0659,16.4387
				C1091.8699,601.1472,1090.6371,602.3735,1089.1208,602.3735z"/>
			<path class="st1" d="M1054.9216,621.9968c-1.5217,0-2.7555-1.2337-2.7555-2.7554v-35.9486c0-1.5217,1.2338-2.7554,2.7555-2.7554
				c1.5216,0,2.7554,1.2338,2.7554,2.7554v35.9486C1057.677,620.7631,1056.4432,621.9968,1054.9216,621.9968z"/>
			<path class="st1" d="M1071.6653,593.7632c-5.0732,0-10.1458-1.6639-14.3788-4.9915
				c-33.8172-26.5835-44.2354-57.095-47.0204-78.0095c-1.815-13.6311-0.1558-27.7991,4.7985-40.9731
				c0.3622-0.9626,0.7709-1.961,1.2858-3.1429c0.438-1.0047,1.4299-1.6545,2.5261-1.6545h105.5776
				c1.0958,0,2.0874,0.6495,2.5256,1.6539c0.5106,1.1709,0.9169,2.1631,1.2771,3.12c0.0048,0.0118,0.0092,0.0236,0.0138,0.0357
				c4.9502,13.1632,6.6084,27.3231,4.7955,40.9482c-2.7827,20.9179-13.1993,51.4341-47.0215,78.022
				C1081.8115,592.0992,1076.7383,593.7628,1071.6653,593.7632z M1020.7035,470.5024c-0.1736,0.4265-0.332,0.8311-0.481,1.227
				c-4.6353,12.3257-6.1893,25.5717-4.494,38.3055c2.6501,19.9015,12.6022,48.9649,44.9639,74.4044
				c6.4604,5.0787,15.4851,5.079,21.9462-0.0003c32.3665-25.4436,42.3169-54.5118,44.965-74.4163
				c1.6926-12.722,0.1423-25.9521-4.4839-38.2631c-0.0048-0.0111-0.0088-0.0226-0.0121-0.0309
				c-0.149-0.3959-0.3071-0.8005-0.4803-1.2263H1020.7035z"/>
			<g>
				<path class="st1" d="M1041.8215,515.0947c-3.4921,0-6.9838-1.1655-9.8976-3.4964c-1.1884-0.9506-1.3811-2.6844-0.4305-3.8728
					c0.9509-1.1887,2.6852-1.3807,3.8728-0.4305c3.8008,3.0406,9.1099,3.0406,12.9106,0c1.188-0.9502,2.9222-0.7581,3.8728,0.4305
					c0.9506,1.1884,0.7578,2.9222-0.4305,3.8728C1048.8053,513.9293,1045.3136,515.0947,1041.8215,515.0947z"/>
				<path class="st1" d="M1101.5095,515.0947c-3.4921,0-6.9838-1.1655-9.8977-3.4964c-1.1882-0.9506-1.381-2.6844-0.4304-3.8728
					c0.9508-1.1887,2.6854-1.3807,3.8727-0.4305c3.8009,3.0406,9.1099,3.0406,12.9108,0c1.188-0.9502,2.9222-0.7581,3.8728,0.4305
					c0.9504,1.1884,0.7578,2.9222-0.4305,3.8728C1108.4932,513.9293,1105.0015,515.0947,1101.5095,515.0947z"/>
			</g>
			<path class="st1" d="M1083.9302,564.5312h-22.0763c-1.5217,0-2.7555-1.2338-2.7555-2.7554s1.2338-2.7554,2.7555-2.7554h22.0763
				c1.5217,0,2.7555,1.2338,2.7555,2.7554S1085.4519,564.5312,1083.9302,564.5312z"/>
			<g>
				<path class="st1" d="M1018.1243,535.0177c-0.3902,0-0.7861-0.0831-1.1628-0.2586
					c-10.7593-5.0164-18.3024-14.1313-21.814-26.3588c-1.3817-4.8119-0.45-9.8609,2.5563-13.8521
					c2.9935-3.9747,7.5656-6.2542,12.5437-6.2545l2.339-0.0003c1.5217-0.0003,2.7554,1.2334,2.7557,2.7551
					c0.0004,1.5217-1.233,2.7554-2.7551,2.7557l-2.3394,0.0003c-3.2317,0-6.1993,1.4796-8.1422,4.0591
					c-1.9556,2.5963-2.5613,5.8825-1.6613,9.0157c3.1019,10.8014,9.4425,18.5009,18.846,22.885
					c1.379,0.6431,1.9757,2.2825,1.3329,3.6619C1020.1559,534.4284,1019.162,535.0177,1018.1243,535.0177z"/>
				<path class="st1" d="M1125.2067,535.0187c-1.0376,0-2.0315-0.5893-2.499-1.5916c-0.6428-1.3794-0.0461-3.0188,1.3329-3.6619
					c9.4036-4.384,15.7441-12.0836,18.8461-22.8849c0.9-3.1331,0.2946-6.4193-1.661-9.0157
					c-1.9427-2.5795-4.9108-4.0591-8.1425-4.0595h-2.339c-1.5217,0-2.7555-1.2337-2.7555-2.7554s1.2338-2.7554,2.7555-2.7554h2.3394
					c4.9784,0.0003,9.5504,2.2802,12.5441,6.2549c3.0062,3.9915,3.9376,9.0402,2.5559,13.8521
					c-3.5116,12.2275-11.0547,21.3424-21.814,26.3588C1125.9928,534.9357,1125.5966,535.0187,1125.2067,535.0187z"/>
			</g>
			<g>
				<path class="st1" d="M1023.8228,417.6297c-3.6452,0.8061-6.1931,2.844-8.0186,6.4131l0,0
					c-0.2435,0.4761-0.0789,1.0594,0.3777,1.338l2.1649,1.3207c0.4999,0.305,1.1533,0.1284,1.4316-0.3868l0.0001-0.0002
					c1.3101-2.4265,2.8416-3.7181,4.9653-4.1878c2.4604-0.5442,4.4326,0.5324,4.9073,2.6787c0.738,3.3372-2.887,4.7524-5.1135,5.299
					l-0.3977,0.0978l-0.3566,0.559c-0.1635,0.2563-0.2044,0.572-0.1117,0.8615l1.7795,5.5554
					c0.1611,0.5028,0.6786,0.8002,1.1941,0.6862l1.7854-0.3948c0.5155-0.114,0.8594-0.6019,0.7935-1.1257l-0.2949-2.3417
					c-0.0536-0.4258,0.1637-0.8437,0.5479-1.035c3.9824-1.9837,5.8192-5.3865,4.9476-9.3275
					C1033.3875,418.9499,1029.0278,416.4785,1023.8228,417.6297z"/>
				<path class="st1" d="M1027.0536,445.0452l3.9995-0.8845c0.3362-0.0743,0.5485-0.4071,0.4741-0.7433l-0.9851-4.4547
					c-0.0743-0.3362-0.4071-0.5484-0.7433-0.4741l-3.9996,0.8845c-0.3362,0.0744-0.5485,0.4072-0.4741,0.7433l0.9852,4.4547
					C1026.3846,444.9073,1026.7174,445.1196,1027.0536,445.0452z"/>
			</g>
			<g>
				<path class="st1" d="M1085.1459,396.7798c-3.6453,0.8061-6.1931,2.844-8.0186,6.4131l0,0
					c-0.2435,0.4761-0.0789,1.0594,0.3776,1.338l2.1649,1.3207c0.4999,0.305,1.1533,0.1284,1.4316-0.3868l0.0001-0.0001
					c1.3101-2.4266,2.8416-3.7182,4.9652-4.1878c2.4606-0.5441,4.4327,0.5324,4.9073,2.6787c0.738,3.3372-2.887,4.7524-5.1135,5.299
					l-0.3976,0.0978l-0.3567,0.559c-0.1635,0.2563-0.2045,0.572-0.1117,0.8615l1.7795,5.5554
					c0.161,0.5028,0.6786,0.8002,1.1941,0.6862l1.7854-0.3949c0.5155-0.114,0.8594-0.6019,0.7933-1.1257l-0.2949-2.3417
					c-0.0536-0.4258,0.1637-0.8437,0.5479-1.035c3.9824-1.9836,5.8193-5.3865,4.9478-9.3275
					C1094.7106,398.1,1090.351,395.6287,1085.1459,396.7798z"/>
				<path class="st1" d="M1088.3767,424.1954l3.9995-0.8845c0.3362-0.0743,0.5485-0.4071,0.4741-0.7433l-0.9852-4.4547
					c-0.0743-0.3362-0.4071-0.5485-0.7433-0.4741l-3.9995,0.8845c-0.3362,0.0743-0.5485,0.4071-0.4741,0.7433l0.9851,4.4547
					C1087.7076,424.0575,1088.0405,424.2697,1088.3767,424.1954z"/>
			</g>
			<g>
				<path class="st1" d="M1119.2772,428.6271c-2.1558-3.048-5.0217-4.6071-9.0194-4.9069l0,0
					c-0.5332-0.04-1.0072,0.3379-1.087,0.8666l-0.3787,2.5076c-0.0874,0.579,0.3286,1.1129,0.9114,1.1698l0.0001,0
					c2.7446,0.2674,4.5288,1.1787,5.7848,2.9545c1.4551,2.0574,1.2269,4.2927-0.5679,5.562
					c-2.7904,1.9736-5.4998-0.8198-6.8665-2.6605l-0.2443-0.3287l-0.6534-0.1122c-0.2997-0.0514-0.6066,0.0332-0.8375,0.2309
					l-4.4318,3.7932c-0.4011,0.3433-0.4747,0.9356-0.1698,1.3667l1.0558,1.4929c0.3049,0.431,0.8879,0.559,1.3452,0.2952
					l2.0444-1.1793c0.3717-0.2144,0.8412-0.176,1.1664,0.1039c3.3719,2.9026,7.2207,3.2772,10.516,0.9466
					C1121.7665,437.9561,1122.3553,432.9795,1119.2772,428.6271z"/>
				<path class="st1" d="M1095.2557,442.2294l2.3652,3.3443c0.1989,0.2811,0.5879,0.3478,0.869,0.149l3.7247-2.6344
					c0.2811-0.1988,0.3479-0.5879,0.149-0.869l-2.3652-3.3443c-0.1989-0.2811-0.5879-0.3478-0.869-0.149l-3.7249,2.6344
					C1095.1237,441.5592,1095.0569,441.9483,1095.2557,442.2294z"/>
			</g>
			<g>
				<path class="st1" d="M1050.5948,449.4702l0.8164-15.1383c0.0018-0.0326,0.0027-0.0653,0.0027-0.098l0.0006-1.2366
					c0.0005-1.0136-0.821-1.8355-1.8347-1.8355h-1.601c-1.0133,0-1.8347,0.8214-1.8347,1.8347v1.2313l0.7865,15.2381
					c0.0504,0.9752,0.8557,1.7401,1.8323,1.7401l0,0C1049.7378,451.2061,1050.5424,450.4437,1050.5948,449.4702z"/>
				<path class="st1" d="M1046.7317,458.3058h4.0962c0.3442,0,0.6234-0.2791,0.6234-0.6234V453.12
					c0-0.3443-0.2792-0.6234-0.6234-0.6234h-4.0962c-0.3444,0-0.6234,0.2791-0.6234,0.6234v4.5623
					C1046.1083,458.0266,1046.3873,458.3058,1046.7317,458.3058z"/>
			</g>
			<g>
				<path class="st1" d="M1128.6035,450.1645l8.0665-12.8362c0.0173-0.0277,0.0339-0.0558,0.0499-0.0844l0.6011-1.0806
					c0.4927-0.8858,0.1737-2.0032-0.7123-2.4955l-1.3994-0.7776c-0.8857-0.4922-2.0027-0.1731-2.4949,0.7126l-0.598,1.0763
					l-6.7139,13.702c-0.4297,0.8769-0.0972,1.9366,0.7565,2.4109l0,0C1127.0111,451.2655,1128.0848,450.9899,1128.6035,450.1645z"/>
				<path class="st1" d="M1120.9351,456.0114l3.5806,1.9896c0.301,0.1672,0.6805,0.0588,0.8478-0.2422l2.2159-3.988
					c0.1672-0.301,0.0588-0.6805-0.2422-0.8477l-3.5806-1.9896c-0.3009-0.1672-0.6804-0.0588-0.8477,0.2422l-2.2159,3.988
					C1120.5258,455.4646,1120.6342,455.8441,1120.9351,456.0114z"/>
			</g>
			<g>
				<path class="st1" d="M1059.5153,414.5866l-6.2188-13.8261c-0.0134-0.0298-0.0276-0.0592-0.0426-0.0883l-0.5667-1.099
					c-0.4646-0.9008-1.5715-1.2543-2.4722-0.7894l-1.4227,0.7344c-0.9004,0.4648-1.2534,1.5715-0.7887,2.4718l0.5649,1.0941
					l7.6888,13.1796c0.4921,0.8435,1.5585,1.1537,2.4263,0.7057l0,0C1059.5499,416.5222,1059.9152,415.4757,1059.5153,414.5866z"/>
				<path class="st1" d="M1060.1355,424.2098l3.6398-1.879c0.3059-0.1579,0.4259-0.534,0.2679-0.8399l-2.0928-4.054
					c-0.158-0.3059-0.5339-0.4259-0.8398-0.268l-3.6399,1.879c-0.3059,0.1579-0.4259,0.534-0.2679,0.8399l2.0928,4.054
					C1059.4535,424.2478,1059.8295,424.3678,1060.1355,424.2098z"/>
			</g>
			<path class="st1" d="M1083.1444,450.1078c-0.3337-0.3419-0.3864-0.8669-0.1259-1.2673c0.8881-1.3654,1.7709-3.0036,2.7584-5.1065
				l0,0c0.2412-0.5133,0.0183-1.1248-0.4966-1.3625l-2.3304-1.0759c-0.5217-0.2408-1.1393-0.0044-1.3668,0.5232l-0.0001,0.0003
				c-0.4951,1.1485-1.0121,2.2131-1.5464,3.1854c-0.3317,0.6036-1.1471,0.7224-1.6295,0.2309l-1.8685-1.9035
				c-0.4657-0.4744-0.3591-1.2598,0.2146-1.5956c2.6288-1.5383,3.9575-3.6577,3.9575-6.3254c0-3.8329-3.0598-6.7232-7.1177-6.7232
				c-4.4359,0-7.6554,2.9482-7.6554,7.01c0,1.646,0.4791,2.9879,1.2799,4.2644c0.3011,0.4802,0.1486,1.1212-0.3402,1.4083
				c-3.65,2.1435-4.4893,4.9953-4.4893,7.164c0,4.6852,3.7472,8.0858,8.9102,8.0858c2.7737,0,5.2422-0.9296,7.4976-2.8326
				c0.4103-0.3462,1.0172-0.3208,1.3916,0.0639l2.5341,2.6031c0.3613,0.3711,0.943,0.4133,1.3541,0.0982l2.1516-1.6495
				c0.4862-0.3727,0.5375-1.0865,0.1096-1.5249L1083.1444,450.1078z M1073.4857,433.0625c1.4883,0,2.5275,1.0246,2.5275,2.4918
				c0,0.9061-0.322,2.179-2.8164,3.3171c-0.42,0.1917-0.918,0.0616-1.2096-0.2963c-1.0651-1.3073-1.2803-2.0301-1.2803-2.8774
				C1070.7069,434.146,1071.8496,433.0625,1073.4857,433.0625z M1071.3374,444.7438l4.2738,4.4109
				c0.4285,0.4423,0.3658,1.1557-0.1216,1.532c-1.2925,0.9978-2.6055,1.4868-3.9762,1.4868c-2.4805,0-4.2128-1.5406-4.2128-3.7469
				c0-1.5617,0.9941-2.9096,2.8315-3.8811C1070.5306,444.335,1071.0238,444.4201,1071.3374,444.7438z"/>
			<g>
				<path class="st1" d="M1001.2322,461.6815c-1.0461,0-1.8944-0.8481-1.8944-1.8943c0-4.7414-4.0056-8.7473-8.7473-8.7473
					c-1.046,0-1.8943-0.8481-1.8943-1.8943s0.8483-1.8943,1.8943-1.8943c4.7416,0,8.7473-4.0058,8.7473-8.7473
					c0-1.0462,0.8483-1.8943,1.8944-1.8943c1.046,0,1.8943,0.8481,1.8943,1.8943c0,4.7415,4.0056,8.7473,8.7473,8.7473
					c1.046,0,1.8943,0.8481,1.8943,1.8943s-0.8483,1.8943-1.8943,1.8943c-4.7416,0-8.7473,4.0058-8.7473,8.7473
					C1003.1265,460.8334,1002.2782,461.6815,1001.2322,461.6815z M997.1141,449.1456c1.6626,1.0397,3.0783,2.4552,4.118,4.1182
					c1.0397-1.663,2.4554-3.0785,4.118-4.1182c-1.6626-1.0397-3.0783-2.4552-4.118-4.1182
					C1000.1924,446.6903,998.7767,448.1059,997.1141,449.1456z"/>
			</g>
			<g>
				<path class="st1" d="M1150.2753,472.7197c-1.046,0-1.8943-0.8483-1.8943-1.8943c0-4.7416-4.0056-8.7473-8.7473-8.7473
					c-1.046,0-1.8943-0.8481-1.8943-1.8944s0.8483-1.8943,1.8943-1.8943c4.7417,0,8.7473-4.0058,8.7473-8.7473
					c0-1.0462,0.8483-1.8943,1.8943-1.8943c1.0461,0,1.8944,0.8481,1.8944,1.8943c0,4.7414,4.0056,8.7473,8.7473,8.7473
					c1.046,0,1.8943,0.8481,1.8943,1.8943s-0.8483,1.8944-1.8943,1.8944c-4.7417,0-8.7473,4.0056-8.7473,8.7473
					C1152.1697,471.8714,1151.3214,472.7197,1150.2753,472.7197z M1146.1573,460.1837c1.6626,1.0397,3.0782,2.4552,4.1179,4.1182
					c1.0397-1.6629,2.4554-3.0785,4.118-4.1182c-1.6626-1.0397-3.0784-2.4552-4.118-4.1182
					C1149.2356,457.7285,1147.8199,459.144,1146.1573,460.1837z"/>
			</g>
			<path class="st1" d="M1089.1914,622.0998c-1.5216,0-2.7554-1.2338-2.7554-2.7554v-9.3318c0-1.5217,1.2338-2.7554,2.7554-2.7554
				c1.5217,0,2.7555,1.2338,2.7555,2.7554v9.3318C1091.9469,620.866,1090.7131,622.0998,1089.1914,622.0998z"/>
		</g>
		<g>
			<g>
				<path class="st1" d="M746.7748,765.5701c-1.5217,0-2.7554-1.2338-2.7554-2.7554c0-7.2565-6.1307-13.3873-13.3873-13.3873
					c-1.5217,0-2.7554-1.2338-2.7554-2.7554s1.2338-2.7554,2.7554-2.7554c7.2565,0,13.3873-6.1307,13.3873-13.3873
					c0-1.5217,1.2338-2.7554,2.7554-2.7554s2.7554,1.2338,2.7554,2.7554c0,7.2565,6.1304,13.3873,13.387,13.3873
					c1.5217,0,2.7554,1.2338,2.7554,2.7554s-1.2337,2.7554-2.7554,2.7554c-7.2565,0-13.387,6.1307-13.387,13.3873
					C749.5303,764.3363,748.2965,765.5701,746.7748,765.5701z M740.3041,746.6719c2.6302,1.6088,4.862,3.8401,6.4708,6.4708
					c1.6088-2.6307,3.8401-4.8621,6.4705-6.4708c-2.6303-1.6088-4.8616-3.8401-6.4705-6.4708
					C745.1661,742.8318,742.9343,745.0632,740.3041,746.6719z"/>
			</g>
			<g>
				<path class="st1" d="M577.0616,892.0403c-1.5219,0-2.7554-1.2337-2.7554-2.7554c0-7.2565-6.1306-13.3873-13.3873-13.3873
					c-1.5219,0-2.7554-1.2337-2.7554-2.7554s1.2336-2.7554,2.7554-2.7554c7.2567,0,13.3873-6.1307,13.3873-13.3873
					c0-1.5217,1.2336-2.7554,2.7554-2.7554c1.5218,0,2.7554,1.2338,2.7554,2.7554c0,7.2565,6.1306,13.3873,13.3871,13.3873
					c1.5219,0,2.7554,1.2338,2.7554,2.7554s-1.2336,2.7554-2.7554,2.7554c-7.2565,0-13.3871,6.1308-13.3871,13.3873
					C579.817,890.8066,578.5834,892.0403,577.0616,892.0403z M570.5908,873.1422c2.6304,1.6088,4.862,3.8401,6.4708,6.4708
					c1.6088-2.6306,3.8403-4.862,6.4706-6.4708c-2.6302-1.6088-4.8618-3.8402-6.4706-6.4708
					C575.4528,869.302,573.2212,871.5334,570.5908,873.1422z"/>
			</g>
			<path class="st1" d="M751.6675,894.5535c-0.775,0-1.5278-0.3276-2.0582-0.9233l-20.2616-22.7615
				c-0.0497-0.0558-0.1209-0.0878-0.1957-0.0878h-38.2105c-11.4477,0-20.7278-9.2802-20.7278-20.7278v-38.8235
				c0-11.4496,9.2817-20.7313,20.7312-20.7313h74.4822c11.4477,0,20.7278,9.2802,20.7278,20.7278v38.8269
				c0,11.4477-9.2802,20.7278-20.7278,20.7278h-6.5885c-0.1251,0-0.2328,0.0885-0.257,0.2113l-4.1771,21.1686
				c-0.1343,0.6808-0.4507,1.3372-0.9919,1.7715C752.8817,894.3585,752.2673,894.5535,751.6675,894.5535z M690.9416,796.0092
				c-8.4041,0-15.217,6.8129-15.217,15.217v38.8269c0,8.4041,6.8129,15.217,15.217,15.217h39.4466
				c0.8612,0,1.6813,0.3679,2.254,1.0112l17.0451,19.1483c0.1439,0.1617,0.4108,0.0889,0.4527-0.1235l3.4738-17.6027
				c0.279-1.414,1.519-2.4332,2.9603-2.4332h8.8531c8.4041,0,15.217-6.8129,15.217-15.217v-38.8235
				c0-8.406-6.8144-15.2204-15.2203-15.2204H690.9416z"/>
			<path class="st1" d="M624.9455,847.7733c-0.2416,0-0.4852-0.0316-0.7252-0.0972c-1.0092-0.2755-1.7756-1.0986-1.978-2.1251
				l-4.2496-21.5503h-7.0653c-11.2867,0-20.4692-9.1808-20.4692-20.4659v-39.3472c0-11.285,9.1825-20.4659,20.4692-20.4659h75.006
				c11.2849,0,20.4657,9.1808,20.4657,20.4659v29.0662c0,1.5217-1.2338,2.7554-2.7554,2.7554h-12.9642
				c-8.2462,0-14.955,6.7103-14.955,14.9584v10.2776c0,1.5217-1.2336,2.7554-2.7554,2.7554h-25.6223L627.0037,846.85
				C626.4733,847.4457,625.7205,847.7733,624.9455,847.7733z M610.9274,749.2326c-8.2481,0-14.9584,6.7089-14.9584,14.955v39.3472
				c0,8.2461,6.7103,14.9551,14.9584,14.9551h9.3304c1.3163,0,2.4487,0.931,2.7033,2.2223l3.6148,18.3307l17.4767-19.6297
				c0.5229-0.5873,1.2718-0.9233,2.058-0.9233h24.1031v-7.5223c0-11.2867,9.181-20.4692,20.4658-20.4692h10.2087v-26.3107
				c0-8.2461-6.7088-14.955-14.9548-14.955H610.9274z"/>
			<g>
				<path class="st1" d="M645.43,760.6345c-6.3434,0.0117-11.3138,2.467-15.6423,7.7267l0,0
					c-0.5775,0.7016-0.5164,1.7297,0.14,2.3581l3.1127,2.9798c0.7187,0.688,1.8674,0.6328,2.5168-0.1211l0.0002-0.0002
					c3.0574-3.5508,6.0692-5.1373,9.765-5.1441c4.2819-0.0079,7.1635,2.4965,7.1703,6.2316
					c0.0107,5.8076-6.5209,6.8375-10.4152,6.9345l-0.6957,0.0176l-0.7953,0.798c-0.3646,0.3658-0.5474,0.875-0.4988,1.3892
					l0.9323,9.8682c0.0844,0.8931,0.8351,1.575,1.7322,1.5733l3.1071-0.0057c0.8971-0.0016,1.6453-0.6863,1.7264-1.5797
					l0.3625-3.9939c0.0659-0.7262,0.5787-1.3408,1.2858-1.5186c7.3317-1.8433,11.6185-6.8229,11.6058-13.6811
					C660.8246,766.3058,654.488,760.6178,645.43,760.6345z"/>
				<path class="st1" d="M640.8171,807.3132l6.9601-0.0128c0.585-0.001,1.0584-0.4762,1.0574-1.0612l-0.0143-7.7521
					c-0.0011-0.585-0.4762-1.0583-1.0612-1.0573l-6.9601,0.0128c-0.585,0.0011-1.0584,0.4762-1.0573,1.0612l0.0143,7.7521
					C639.757,806.8409,640.2321,807.3143,640.8171,807.3132z"/>
			</g>
			<path class="st1" d="M706.978,845.7308c0,1.6188-1.3123,2.931-2.9311,2.931h-8.0628c-1.7635,0-3.1931-1.4296-3.1931-3.1931
				v-7.8008c0-1.7635,1.4296-3.1932,3.1932-3.1932h7.8008c1.7635,0,3.1931,1.4296,3.1931,3.1931V845.7308"/>
			<path class="st1" d="M732.2751,848.6618h-7.7977c-1.7644,0-3.1948-1.4304-3.1948-3.1948v-7.7977
				c0-1.7644,1.4304-3.1948,3.1948-3.1948h7.7977c1.7645,0,3.1948,1.4304,3.1948,3.1948v7.7977
				C735.4698,847.2314,734.0396,848.6618,732.2751,848.6618z"/>
			<path class="st1" d="M761.7998,848.6618h-7.7977c-1.7644,0-3.1948-1.4304-3.1948-3.1948v-7.7977
				c0-1.7644,1.4304-3.1948,3.1948-3.1948h7.7977c1.7645,0,3.1948,1.4304,3.1948,3.1948v7.7977
				C764.9946,847.2314,763.5643,848.6618,761.7998,848.6618z"/>
		</g>
		<g>
			<g>
				<path class="st1" d="M1169.616,859.015h-140.0785c-1.0248,0-1.9653-0.5688-2.4409-1.477l-38.4652-73.4307
					c-6.3104-0.5116-12.0745-3.8482-15.66-9.1438c-3.9058-5.7692-4.6928-13.0751-2.1056-19.5436
					c0.8883-2.2213,3.008-3.6565,5.4002-3.6565h16.0303c6.4829,0,12.2958,3.6101,15.1696,9.4216l34.5436,69.8542h120.8171
					c4.7726,0,9.1405,2.411,11.684,6.4496c2.5436,4.0386,2.8312,9.0197,0.7693,13.324l-3.1788,6.637
					C1171.6429,858.4061,1170.6765,859.015,1169.616,859.015z M1031.2048,853.5041h136.6759l2.4292-5.0719
					c1.2388-2.5865,1.0663-5.5795-0.4625-8.0066c-1.5283-2.4268-4.153-3.8755-7.0208-3.8755h-122.5284
					c-1.0481,0-2.0054-0.5947-2.4698-1.5341l-35.3022-71.3884c-1.9381-3.9189-5.858-6.3535-10.2299-6.3535h-16.0303
					c-0.1255,0-0.2368,0.0754-0.2836,0.1921c-1.9357,4.8398-1.37,10.0913,1.5522,14.4075c2.9223,4.3161,7.5879,6.7917,12.8,6.7917
					c1.0248,0,1.9653,0.5687,2.4409,1.4769L1031.2048,853.5041z"/>
				<path class="st1" d="M1022.1199,894.8818c-0.3885,0-0.7823-0.0824-1.1577-0.2567c-1.3807-0.6404-1.9805-2.2784-1.3401-3.6589
					l16.6388-35.8662c0.6405-1.3814,2.2792-1.9811,3.6589-1.34c1.3807,0.6404,1.9805,2.2784,1.3401,3.6589l-16.6389,35.8662
					C1024.1548,894.2905,1023.1592,894.8818,1022.1199,894.8818z"/>
				<path class="st1" d="M1167.8068,894.8818c-1.0397,0-2.0349-0.5913-2.5011-1.5963l-16.6392-35.8663
					c-0.6405-1.3807-0.0408-3.0188,1.3397-3.6592c1.38-0.6415,3.0188-0.0407,3.6592,1.3397l16.6392,35.8663
					c0.6404,1.3807,0.0406,3.0188-1.3397,3.6592C1168.5895,894.7994,1168.1949,894.8818,1167.8068,894.8818z"/>
				<path class="st1" d="M1159.5587,880.2756h-29.3854c-1.5217,0-2.7555-1.2338-2.7555-2.7554s1.2338-2.7554,2.7555-2.7554h29.3854
					c1.5216,0,2.7554,1.2338,2.7554,2.7554S1161.0803,880.2756,1159.5587,880.2756z"/>
				<path class="st1" d="M1117.4294,880.2756h-15.8436c-1.5216,0-2.7554-1.2338-2.7554-2.7554s1.2338-2.7554,2.7554-2.7554h15.8436
					c1.5217,0,2.7555,1.2338,2.7555,2.7554S1118.9512,880.2756,1117.4294,880.2756z"/>
				<path class="st1" d="M1089.8752,880.2756h-60.7283c-1.5216,0-2.7554-1.2338-2.7554-2.7554s1.2338-2.7554,2.7554-2.7554h60.7283
					c1.5217,0,2.7555,1.2338,2.7555,2.7554S1091.397,880.2756,1089.8752,880.2756z"/>
			</g>
			<path class="st1" d="M1131.442,762.4941c-3.0369,0-5.9572-0.7914-8.5424-2.3024c-3.0044,1.5106-6.3323,2.3024-9.7238,2.3024
				c-6.4818,0-12.5813-2.9263-16.6586-7.826c-3.2765,3.0861-7.6343,4.8526-12.2275,4.8526c-9.8347,0-17.8356-8.0009-17.8356-17.8356
				c0-8.9719,6.6588-16.4178,15.2941-17.6549c-0.0011-0.0623-0.0013-0.1241-0.0013-0.1863c0-7.7264,6.2858-14.0126,14.0122-14.0126
				c6.166,0,11.5114,4.0766,13.3381,9.7321c1.3407-0.2573,2.7043-0.3868,4.0786-0.3868c7.1204,0,13.795,3.5425,17.8175,9.3521
				c0.1503-0.0044,0.2999-0.0064,0.4486-0.0064c9.3662,0,16.986,7.6198,16.986,16.9859
				C1148.428,754.8743,1140.8082,762.4941,1131.442,762.4941z M1123.0181,754.2208c0.5754,0,1.1493,0.1799,1.6333,0.5361
				c1.9795,1.4564,4.3275,2.2263,6.7906,2.2263c6.3275,0,11.4751-5.1475,11.4751-11.4751c0-6.3275-5.1476-11.475-11.4751-11.475
				c-0.4884,0-1.001,0.035-1.5239,0.1042c-1.1077,0.1473-2.1908-0.3885-2.7484-1.3545c-2.8805-4.9935-8.2427-8.0954-13.9938-8.0954
				c-1.8058,0-3.5868,0.3-5.2932,0.892c-0.8073,0.2809-1.6992,0.1699-2.4139-0.2986c-0.7148-0.4689-1.1716-1.2429-1.2365-2.0948
				c-0.3353-4.3985-4.0571-7.8438-8.4731-7.8438c-4.6877,0-8.5013,3.814-8.5013,8.5018c0,0.709,0.0878,1.415,0.261,2.0985
				c0.2133,0.8419,0.0171,1.7349-0.5292,2.41c-0.5469,0.6754-1.389,1.0538-2.2468,1.0201c-0.1503-0.0057-0.301-0.0121-0.453-0.0121
				c-6.7958,0-12.3247,5.529-12.3247,12.3247s5.5289,12.3248,12.3247,12.3248c4.0729,0,7.8798-2.0121,10.1831-5.382
				c0.5359-0.7841,1.4342-1.2432,2.3868-1.1985c0.9489,0.0387,1.8113,0.5631,2.2815,1.3882
				c2.8717,5.0369,8.2498,8.1656,14.0347,8.1656c2.9745,0,5.8812-0.8153,8.4055-2.3582
				C1122.0238,754.3546,1122.5216,754.2208,1123.0181,754.2208z"/>
			<path class="st1" d="M1060.3275,779.4861c-6.2037,0-11.2511-5.0474-11.2511-11.2514c0-6.2041,5.0474-11.2515,11.2511-11.2515
				c6.204,0,11.2513,5.0474,11.2513,11.2515C1071.5789,774.4387,1066.5315,779.4861,1060.3275,779.4861z M1060.3275,762.4941
				c-3.1652,0-5.7402,2.5751-5.7402,5.7406c0,3.1654,2.5751,5.7405,5.7402,5.7405c3.1654,0,5.7405-2.5751,5.7405-5.7405
				C1066.068,765.0692,1063.4929,762.4941,1060.3275,762.4941z"/>
			<path class="st1" d="M1037.3501,791.6349c-5.033,0-9.1274-4.0944-9.1274-9.1273s4.0945-9.1273,9.1274-9.1273
				c5.0328,0,9.1273,4.0944,9.1273,9.1273S1042.3829,791.6349,1037.3501,791.6349z M1037.3501,778.8911
				c-1.9943,0-3.6166,1.6223-3.6166,3.6165s1.6223,3.6165,3.6166,3.6165c1.9941,0,3.6165-1.6223,3.6165-3.6165
				S1039.3442,778.8911,1037.3501,778.8911z"/>
			<path class="st1" d="M1036.4877,845.3663c-0.3579,0-0.7219-0.0703-1.0724-0.2183c-1.4016-0.593-2.0568-2.2098-1.4641-3.6115
				l3.7887-8.9551c0.5927-1.4009,2.2095-2.0558,3.6115-1.4641c1.4016,0.593,2.0568,2.2098,1.4641,3.6115l-3.7887,8.9551
				C1038.5822,844.7346,1037.5613,845.3663,1036.4877,845.3663z"/>
		</g>
		<g>
			<g>
				<path class="st1" d="M633.3456,458.3551c-1.5219,0-2.7554-1.2336-2.7554-2.7554c0-6.5784-5.5578-12.136-12.1362-12.136
					c-1.5219,0-2.7554-1.2336-2.7554-2.7554c0-1.5219,1.2336-2.7554,2.7554-2.7554c6.5784,0,12.1362-5.5576,12.1362-12.136
					c0-1.5219,1.2336-2.7554,2.7554-2.7554c1.5218,0,2.7554,1.2336,2.7554,2.7554c0,6.5784,5.5576,12.136,12.136,12.136
					c1.5219,0,2.7554,1.2336,2.7554,2.7554c0,1.5218-1.2336,2.7554-2.7554,2.7554c-6.5784,0-12.136,5.5576-12.136,12.136
					C636.101,457.1215,634.8674,458.3551,633.3456,458.3551z M627.7775,440.7082c2.2331,1.425,4.1431,3.335,5.5681,5.5678
					c1.4249-2.2329,3.3348-4.1429,5.5678-5.5678c-2.233-1.425-4.1429-3.335-5.5678-5.5679
					C631.9206,437.3733,630.0106,439.2832,627.7775,440.7082z"/>
			</g>
			<path class="st1" d="M737.4067,593.6749H637.2997c-4.3625,0-8.3223-2.0333-10.8643-5.5788
				c-2.5419-3.5455-3.1966-7.9484-1.7963-12.0802l50.4037-148.7205c1.8171-5.3617,6.6492-8.8263,12.3106-8.8263
				c5.6612,0,10.4932,3.4646,12.3104,8.8263l50.4037,148.7208c1.4002,4.1315,0.7454,8.5344-1.7965,12.0799
				C745.7292,591.6416,741.7693,593.6749,737.4067,593.6749z M687.3534,423.9799c-2.5952,0-5.821,1.3357-7.0914,5.0844
				l-50.4037,148.7205c-0.8231,2.4285-0.4381,5.0164,1.0558,7.1002c1.4941,2.084,3.8215,3.2791,6.3856,3.2791h100.1071
				c2.564,0,4.8916-1.1951,6.3857-3.2788c1.4938-2.084,1.8785-4.6719,1.0555-7.1001l-50.4033-148.7208
				C693.1742,425.3156,689.9485,423.9799,687.3534,423.9799z"/>
			<path class="st1" d="M737.4067,593.6749H637.2997c-4.3625,0-8.3223-2.0333-10.8643-5.5788
				c-2.5419-3.5455-3.1966-7.9484-1.7963-12.0802l50.4037-148.7205c1.8171-5.3617,6.6492-8.8263,12.3106-8.8263
				c5.6612,0,10.4932,3.4646,12.3104,8.8263l50.4037,148.7208c1.4002,4.1315,0.7454,8.5344-1.7965,12.0799
				C745.7292,591.6416,741.7693,593.6749,737.4067,593.6749z M687.3534,423.9799c-2.5952,0-5.821,1.3357-7.0914,5.0844
				l-50.4037,148.7205c-0.8231,2.4285-0.4381,5.0164,1.0558,7.1002c1.4941,2.084,3.8215,3.2791,6.3856,3.2791h100.1071
				c2.564,0,4.8916-1.1951,6.3857-3.2788c1.4938-2.084,1.8785-4.6719,1.0555-7.1001l-50.4033-148.7208
				C693.1742,425.3156,689.9485,423.9799,687.3534,423.9799z"/>
			<path class="st1" d="M737.4067,593.6749H637.2997c-4.3625,0-8.3223-2.0333-10.8643-5.5788
				c-2.5419-3.5455-3.1966-7.9484-1.7963-12.0802l9.0116-26.5892c0.3791-1.1187,1.4287-1.8712,2.6096-1.8712h102.1861
				c1.181,0,2.2307,0.7524,2.6098,1.8712l9.0113,26.5895c1.4002,4.1315,0.7454,8.5344-1.7965,12.0799
				C745.7292,591.6416,741.7693,593.6749,737.4067,593.6749z M638.2359,553.0663l-8.3776,24.7188
				c-0.8231,2.4282-0.4383,5.0161,1.0558,7.0998c1.4941,2.084,3.8215,3.2791,6.3856,3.2791h100.1071
				c2.564,0,4.8916-1.1951,6.3857-3.2788c1.4938-2.084,1.8785-4.6719,1.0558-7.1001l-8.3773-24.7188H638.2359z"/>
			<path class="st1" d="M694.8714,553.0663H679.835c-1.5218,0-2.7554-1.2338-2.7554-2.7554V448.0453
				c0-5.6649,4.6087-10.2736,10.2736-10.2736s10.2736,4.6087,10.2736,10.2736v102.2656
				C697.6268,551.8326,696.3932,553.0663,694.8714,553.0663z M682.5904,547.5555h9.5256v-99.5102
				c0-2.6263-2.1365-4.7628-4.7628-4.7628s-4.7628,2.1365-4.7628,4.7628V547.5555z"/>
			<g>
				<path class="st1" d="M742.7733,452.223c-0.4672,0-0.9404-0.119-1.3743-0.3693c-1.3182-0.7605-1.7702-2.4455-1.0097-3.7636
					l4.7079-8.1596c0.7605-1.318,2.4453-1.7699,3.7638-1.0096c1.3182,0.7605,1.7703,2.4455,1.0098,3.7637l-4.708,8.1596
					C744.6525,451.7284,743.7258,452.223,742.7733,452.223z"/>
				<path class="st1" d="M684.8295,552.6486c-0.4673,0-0.9408-0.1187-1.3745-0.369c-1.3182-0.7605-1.7701-2.4456-1.0096-3.7638
					l48.3469-83.7928c0.7605-1.318,2.4453-1.7699,3.7639-1.0096c1.3182,0.7605,1.7702,2.4455,1.0097,3.7636l-48.3472,83.7928
					C686.7084,552.1542,685.7819,552.6486,684.8295,552.6486z"/>
				<path class="st1" d="M741.4955,473.6539c-0.478,0-0.9536-0.1245-1.3771-0.3688l-16.6331-9.5969
					c-0.6953-0.4011-1.181-1.0852-1.3303-1.8738c-0.1494-0.7886,0.0525-1.6031,0.553-2.2307l12.1078-15.1844
					c0.85-1.0656,2.3505-1.3505,3.5314-0.6687l11.2979,6.5187c1.1638,0.6715,1.6737,2.0847,1.2065,3.3447l-6.7725,18.2626
					c-0.2822,0.7608-0.8853,1.3585-1.6485,1.6339C742.1271,473.5997,741.8106,473.6539,741.4955,473.6539z M729.0133,460.5153
					l11.0331,6.3659l4.829-13.0217l-7.2289-4.171L729.0133,460.5153z"/>
			</g>
			<path class="st1" d="M687.3532,583.5015c-7.1132,0-12.9004-5.7874-12.9004-12.9006c0-7.1133,5.7872-12.9003,12.9004-12.9003
				c7.1134,0,12.9006,5.787,12.9006,12.9003C700.2538,577.7141,694.4666,583.5015,687.3532,583.5015z M687.3532,563.2115
				c-4.0746,0-7.3896,3.3148-7.3896,7.3894c0,4.0746,3.315,7.3897,7.3896,7.3897c4.0748,0,7.3897-3.3151,7.3897-7.3897
				C694.7429,566.5262,691.428,563.2115,687.3532,563.2115z"/>
			<path class="st1" d="M694.8714,461.3986h-7.5182c-1.5219,0-2.7554-1.2336-2.7554-2.7554c0-1.5219,1.2336-2.7554,2.7554-2.7554
				h7.5182c1.5219,0,2.7554,1.2336,2.7554,2.7554C697.6268,460.165,696.3932,461.3986,694.8714,461.3986z"/>
			<g>
				<path class="st1" d="M694.8714,480.6016h-7.5182c-1.5219,0-2.7554-1.2337-2.7554-2.7554c0-1.5217,1.2336-2.7554,2.7554-2.7554
					h7.5182c1.5219,0,2.7554,1.2337,2.7554,2.7554C697.6268,479.3679,696.3932,480.6016,694.8714,480.6016z"/>
			</g>
			<g>
				<path class="st1" d="M694.8714,499.8048h-7.5182c-1.5219,0-2.7554-1.2337-2.7554-2.7554s1.2336-2.7554,2.7554-2.7554h7.5182
					c1.5219,0,2.7554,1.2338,2.7554,2.7554S696.3932,499.8048,694.8714,499.8048z"/>
			</g>
			<g>
				<path class="st1" d="M694.8714,519.008h-7.5182c-1.5219,0-2.7554-1.2337-2.7554-2.7554c0-1.5217,1.2336-2.7554,2.7554-2.7554
					h7.5182c1.5219,0,2.7554,1.2337,2.7554,2.7554C697.6268,517.7743,696.3932,519.008,694.8714,519.008z"/>
			</g>
		</g>
		<g>
			<g>
				<path class="st1" d="M230.4492,174.3314c-1.5218,0-2.7554-1.2336-2.7554-2.7554c0-6.0093-5.2714-11.2805-11.2807-11.2805
					c-1.5218,0-2.7554-1.2336-2.7554-2.7554s1.2336-2.7554,2.7554-2.7554c6.0093,0,11.2807-5.2714,11.2807-11.2807
					c0-1.5218,1.2336-2.7554,2.7554-2.7554c1.5219,0,2.7554,1.2336,2.7554,2.7554c0,6.0093,5.2712,11.2807,11.2805,11.2807
					c1.5219,0,2.7554,1.2336,2.7554,2.7554s-1.2336,2.7554-2.7554,2.7554c-6.0093,0-11.2805,5.2712-11.2805,11.2805
					C233.2046,173.0978,231.971,174.3314,230.4492,174.3314z M225.4908,157.5401c1.9675,1.2955,3.6629,2.9907,4.9584,4.9584
					c1.2955-1.9677,2.9907-3.6629,4.9584-4.9584c-1.9677-1.2955-3.6629-2.9909-4.9584-4.9584
					C229.1537,154.5492,227.4583,156.2446,225.4908,157.5401z"/>
			</g>
			<g>
				<path class="st1" d="M410.9525,243.9058c-1.5219,0-2.7554-1.2336-2.7554-2.7554c0-6.0093-5.2714-11.2805-11.2807-11.2805
					c-1.5219,0-2.7554-1.2336-2.7554-2.7554c0-1.5219,1.2336-2.7554,2.7554-2.7554c6.0093,0,11.2807-5.2714,11.2807-11.2807
					c0-1.5218,1.2336-2.7554,2.7554-2.7554c1.5218,0,2.7554,1.2336,2.7554,2.7554c0,6.0093,5.2712,11.2807,11.2805,11.2807
					c1.5219,0,2.7554,1.2336,2.7554,2.7554c0,1.5218-1.2336,2.7554-2.7554,2.7554c-6.0093,0-11.2805,5.2712-11.2805,11.2805
					C413.7079,242.6723,412.4744,243.9058,410.9525,243.9058z M405.9942,227.1145c1.9675,1.2955,3.6629,2.9907,4.9584,4.9584
					c1.2955-1.9677,2.9907-3.6629,4.9584-4.9584c-1.9677-1.2955-3.6629-2.9909-4.9584-4.9584
					C409.6571,224.1236,407.9617,225.819,405.9942,227.1145z"/>
			</g>
			<g>
				<path class="st1" d="M344.4691,248.0329c-5.2383,0.0002-10.3904-2.4974-13.5644-7.1378l-66.7668-97.6093
					c-5.1069-7.4661-3.1875-17.695,4.2784-22.802l19.7044-13.4781c1.5141-1.0358,3.3412-1.4206,5.1439-1.0816
					c1.803,0.3382,3.3662,1.3584,4.4021,2.8726l19.6485,28.7251c2.1379,3.1254,1.3345,7.4077-1.7909,9.5459l-16.2539,11.1179
					l30.4837,44.5654l16.2537-11.1179c3.1254-2.1382,7.4076-1.3345,9.5459,1.7909l19.6485,28.7254
					c1.0356,1.5139,1.4198,3.3409,1.0816,5.1439c-0.3384,1.8029-1.3586,3.3662-2.8727,4.4019l-19.7044,13.4783
					C350.881,247.1064,347.6589,248.0327,344.4691,248.0329z M291.9958,111.3173c-0.2133,0-0.4893,0.0491-0.7639,0.237
					l-19.7043,13.4781c-4.9579,3.3915-6.2325,10.1842-2.8412,15.1422l66.7669,97.6093c3.3911,4.9575,10.1838,6.2323,15.1422,2.8412
					l19.7043-13.4783c0.4036-0.2762,0.5287-0.6635,0.5676-0.8696c0.0387-0.2064,0.0624-0.6127-0.2136-1.0161l-19.6487-28.7254
					c-0.4223-0.6176-1.2679-0.7761-1.8863-0.3539l-18.5278,12.6735c-1.2566,0.8591-2.971,0.5372-3.8299-0.7186l-33.595-49.1139
					c-0.4125-0.6031-0.5686-1.3456-0.4339-2.0637c0.1347-0.7183,0.5493-1.3537,1.1525-1.7662l18.528-12.6735
					c0.6175-0.4225,0.7763-1.2686,0.3538-1.8861l0,0l-19.6485-28.7251c-0.2761-0.4036-0.6635-0.5289-0.8698-0.5676
					C292.1823,111.328,292.0961,111.3173,291.9958,111.3173z"/>
				<path class="st1" d="M304.5278,154.0085c-0.8791,0-1.743-0.4198-2.2768-1.2001l-24.2919-35.5136
					c-0.8592-1.2561-0.5375-2.9707,0.7186-3.8299l9.443-6.4592c1.5143-1.0355,3.3412-1.4198,5.1439-1.0816
					c1.803,0.3382,3.3662,1.3585,4.4021,2.8726l19.6485,28.7251c2.1379,3.1254,1.3345,7.4077-1.7909,9.5459l-9.4434,6.4592
					C305.6051,153.8524,305.0636,154.0085,304.5278,154.0085z M284.0632,116.4578l21.1806,30.965l7.1689-4.9035
					c0.6175-0.4225,0.7763-1.2686,0.3538-1.8861l-19.6485-28.7251c-0.4226-0.6175-1.2687-0.7765-1.8861-0.3538L284.0632,116.4578z"
					/>
				<path class="st1" d="M362.4123,238.6358c-0.1694,0-0.3394-0.0156-0.5081-0.0473c-0.7183-0.1347-1.3536-0.5493-1.7662-1.1525
					l-24.2919-35.5136c-0.8592-1.2561-0.5375-2.9707,0.7186-3.8299l9.443-6.4594c3.1254-2.1382,7.4076-1.3345,9.5459,1.7909
					l19.6485,28.7254c1.0356,1.5139,1.4198,3.3409,1.0816,5.1439c-0.3384,1.8029-1.3586,3.3662-2.8727,4.4019l-9.4432,6.4594
					C363.5065,238.4703,362.9636,238.6358,362.4123,238.6358z M341.9503,201.0855l21.1806,30.965l7.1689-4.9037
					c0.4036-0.2762,0.5289-0.6635,0.5676-0.8696c0.0387-0.2064,0.0624-0.6127-0.2137-1.0161l-19.6485-28.7254
					c-0.4223-0.6176-1.2679-0.7761-1.8863-0.3539L341.9503,201.0855z"/>
			</g>
			<path class="st1" d="M394.9501,298.8732H242.3686c-1.5218,0-2.7554-1.2336-2.7554-2.7554v-11.1404
				c0-10.7711,8.7631-19.5341,19.5341-19.5341h119.024c10.7711,0,19.5342,8.7631,19.5342,19.5341v11.1404
				C397.7056,297.6396,396.472,298.8732,394.9501,298.8732z M245.1241,293.3623h147.0707v-8.385
				c0-7.7325-6.2909-14.0233-14.0233-14.0233h-119.024c-7.7325,0-14.0233,6.2909-14.0233,14.0233V293.3623z"/>
			<path class="st1" d="M331.3205,270.7085H259.25c-1.5219,0-2.7554-1.2336-2.7554-2.7554v-4.6133
				c0-5.5988,4.5549-10.1539,10.1537-10.1539h57.2737c5.5988,0,10.1539,4.5551,10.1539,10.1539v4.6133
				C334.0759,269.4749,332.8423,270.7085,331.3205,270.7085z M262.0054,265.1976h66.5597v-1.8578
				c0-2.5602-2.0829-4.6431-4.6431-4.6431h-57.2737c-2.5602,0-4.6429,2.0829-4.6429,4.6431V265.1976z"/>
			<path class="st1" d="M259.2523,270.6101c-0.987,0-1.9414-0.5318-2.4364-1.4645l-16.8813-31.8148
				c-0.7132-1.3442-0.2018-3.0122,1.1426-3.7255c1.3439-0.7134,3.0121-0.2018,3.7255,1.1426l16.8813,31.8148
				c0.7133,1.3442,0.2018,3.0122-1.1426,3.7255C260.1299,270.5065,259.6879,270.6101,259.2523,270.6101z"/>
		</g>
		<g>
			<path class="st1" d="M692.6638,184.0055c-0.2139,0-0.4288-0.0226-0.6418-0.0688c-7.3413-1.5919-15.1111-1.5919-22.4524,0
				c-0.8948,0.1939-1.83-0.0274-2.5429-0.6022c-0.713-0.5751-1.1274-1.4416-1.1274-2.3575v-8.6351
				c0-8.2117,6.6825-14.8926,14.8965-14.8926s14.8965,6.6809,14.8965,14.8926v8.6351c0,0.9159-0.4144,1.7825-1.1273,2.3575
				C694.0215,183.7726,693.3492,184.0055,692.6638,184.0055z M680.7958,176.6803c2.9601,0,5.9204,0.2225,8.8395,0.663v-5.0014
				c0-4.872-3.9653-8.8356-8.8395-8.8356s-8.8395,3.9636-8.8395,8.8356v5.0014
				C674.8754,176.9028,677.8358,176.6803,680.7958,176.6803z"/>
			<path class="st1" d="M680.7958,294.0464c-32.3568,0-58.681-26.3242-58.681-58.6812c0-13.4789,4.6829-26.6436,13.186-37.0695
				c8.3827-10.2781,20.0969-17.4797,32.9844-20.2783c8.1851-1.7745,16.8368-1.7743,25.0204-0.0002
				c12.8898,2.7986,24.6053,10.0001,32.9888,20.2785c8.5032,10.4255,13.1865,23.5903,13.1865,37.0695
				C739.481,267.7222,713.1549,294.0464,680.7958,294.0464z M680.7958,182.7373c-3.7784,0-7.5555,0.4035-11.2262,1.1995
				c-11.5519,2.5084-22.0556,8.9676-29.5751,18.1873c-7.6239,9.3478-11.8227,21.1532-11.8227,33.2411
				c0,29.017,23.607,52.6242,52.624,52.6242c29.0193,0,52.6281-23.6072,52.6281-52.6242c0-12.0882-4.199-23.8935-11.8235-33.2411
				c-7.5199-9.2197-18.0247-15.679-29.5792-18.1875C688.3514,183.1408,684.5743,182.7373,680.7958,182.7373z"/>
			<path class="st1" d="M680.7966,308.7801c-1.6727,0-3.0285-1.3558-3.0285-3.0285s1.3558-3.0285,3.0285-3.0285
				c24.8558,0,47.6099-13.6159,59.382-35.5341c0.7911-1.4738,2.6285-2.0263,4.101-1.2351c1.4736,0.7915,2.0266,2.6276,1.2351,4.101
				C732.6853,293.9414,707.8868,308.7801,680.7966,308.7801z"/>
			<path class="st1" d="M748.809,256.596c-0.2584,0-0.5212-0.0333-0.783-0.1031c-1.616-0.4316-2.5764-2.0913-2.145-3.7073
				c1.509-5.6515,2.2739-11.5127,2.2739-17.4209c0-1.6727,1.3561-3.0285,3.0286-3.0285c1.6724,0,3.0285,1.3558,3.0285,3.0285
				c0,6.4356-0.834,12.8225-2.4788,18.9833C751.3717,255.7021,750.1473,256.596,748.809,256.596z"/>
			<path class="st1" d="M680.7966,279.7249c-24.4604,0-44.3603-19.8999-44.3603-44.3603s19.8999-44.3603,44.3603-44.3603
				c24.4603,0,44.3604,19.8999,44.3604,44.3603S705.2568,279.7249,680.7966,279.7249z M680.7966,197.0613
				c-21.1204,0-38.3033,17.1829-38.3033,38.3033s17.1829,38.3033,38.3033,38.3033s38.3033-17.1829,38.3033-38.3033
				S701.917,197.0613,680.7966,197.0613z"/>
			<path class="st1" d="M680.7966,75.5643c-1.6727,0-3.0285-1.3558-3.0285-3.0285V43.0285c0-1.6727,1.3558-3.0285,3.0285-3.0285
				s3.0285,1.3558,3.0285,3.0285v29.5072C683.8251,74.2084,682.4692,75.5643,680.7966,75.5643z"/>
			<path class="st1" d="M680.7966,172.5078c-1.6727,0-3.0285-1.3559-3.0285-3.0285V96.4743c0-1.6727,1.3558-3.0285,3.0285-3.0285
				s3.0285,1.3558,3.0285,3.0285v73.0049C683.8251,171.1519,682.4692,172.5078,680.7966,172.5078z"/>
			<path class="st1" d="M680.7964,238.3931c-0.7532,0-1.4845-0.2811-2.0462-0.7959l-19.6428-18.0058
				c-1.2329-1.1303-1.3163-3.0461-0.1862-4.279c1.1306-1.2335,3.0461-1.3163,4.279-0.1861l17.0372,15.6174l2.1317-3.1973
				c0.9279-1.3917,2.8082-1.7682,4.1996-0.8399c1.3917,0.9277,1.7679,2.808,0.84,4.1997l-4.0923,6.1384
				c-0.4904,0.7359-1.278,1.2205-2.1561,1.3266C681.0389,238.3859,680.9173,238.3931,680.7964,238.3931z"/>
			<g>
				<g>
					<path class="st1" d="M680.7966,210.1902c-1.6727,0-3.0285-1.3559-3.0285-3.0285v-3.7856c0-1.6727,1.3558-3.0285,3.0285-3.0285
						s3.0285,1.3558,3.0285,3.0285v3.7856C683.8251,208.8343,682.4692,210.1902,680.7966,210.1902z"/>
					<path class="st1" d="M680.7966,270.3817c-1.6727,0-3.0285-1.3558-3.0285-3.0285v-3.7856c0-1.6727,1.3558-3.0285,3.0285-3.0285
						s3.0285,1.3558,3.0285,3.0285v3.7856C683.8251,269.0259,682.4692,270.3817,680.7966,270.3817z"/>
				</g>
				<g>
					<path class="st1" d="M712.7852,238.3931h-3.7856c-1.6725,0-3.0285-1.3558-3.0285-3.0285s1.356-3.0285,3.0285-3.0285h3.7856
						c1.6725,0,3.0285,1.3558,3.0285,3.0285S714.4577,238.3931,712.7852,238.3931z"/>
					<path class="st1" d="M652.5936,238.3931h-3.7856c-1.6727,0-3.0285-1.3558-3.0285-3.0285s1.3558-3.0285,3.0285-3.0285h3.7856
						c1.6727,0,3.0285,1.3558,3.0285,3.0285S654.2663,238.3931,652.5936,238.3931z"/>
				</g>
			</g>
			<path class="st1" d="M622.47,191.5625c-1.6727,0-3.0285-1.3558-3.0285-3.0285c0-7.2304-6.1086-13.3388-13.3391-13.3388
				c-1.6727,0-3.0285-1.3559-3.0285-3.0285s1.3558-3.0285,3.0285-3.0285c7.2304,0,13.3391-6.1084,13.3391-13.3388
				c0-1.6727,1.3558-3.0285,3.0285-3.0285s3.0285,1.3558,3.0285,3.0285c0,7.2304,6.1084,13.3388,13.3388,13.3388
				c1.6727,0,3.0285,1.3558,3.0285,3.0285s-1.3558,3.0285-3.0285,3.0285c-7.2304,0-13.3388,6.1084-13.3388,13.3388
				C625.4985,190.2067,624.1426,191.5625,622.47,191.5625z M616.3501,172.1667c2.4543,1.5662,4.5536,3.6655,6.1199,6.1197
				c1.5662-2.4542,3.6653-4.5535,6.1196-6.1197c-2.4543-1.5662-4.5535-3.6655-6.1196-6.1197
				C620.9037,168.5012,618.8044,170.6005,616.3501,172.1667z"/>
		</g>
		<g>
			<path class="st1" d="M1094.7706,293.7861h-83.0472c-8.3937,0-15.2224-6.8288-15.2224-15.2226V148.7925
				c0-1.5219,1.2338-2.7554,2.7554-2.7554h17.7791c1.5217,0,2.7554,1.2336,2.7554,2.7554V159.48h66.9122v-10.6875
				c0-1.5219,1.2338-2.7554,2.7554-2.7554h17.7794c1.5217,0,2.7555,1.2336,2.7555,2.7554v20.6414
				c0,0.5869-0.1874,1.1587-0.5352,1.6317l-32.6046,44.3671l9.5364,7.0075l18.6277-25.3477c0.7053-0.96,1.9478-1.3575,3.079-0.9865
				c1.1315,0.371,1.8967,1.4272,1.8967,2.6182v79.8395C1109.9934,286.9573,1103.1643,293.7861,1094.7706,293.7861z
				 M1002.0119,151.5479v127.0156c0,5.3551,4.3564,9.7118,9.7115,9.7118h83.0472c5.3551,0,9.7119-4.3566,9.7119-9.7118v-71.437
				l-15.2837,20.7972c-0.9011,1.2262-2.6259,1.4897-3.8519,0.5888l-13.9769-10.2708c-0.589-0.4327-0.9818-1.0817-1.0922-1.8042
				c-0.1102-0.7223,0.0707-1.4591,0.5035-2.0479l33.7012-45.8593v-16.9824h-12.2686v10.6875c0,1.5218-1.2338,2.7554-2.7555,2.7554
				h-72.423c-1.5217,0-2.7554-1.2336-2.7554-2.7554v-10.6875H1002.0119z M1107.2379,169.4339h0.0034H1107.2379z"/>
			<path class="st1" d="M1089.4585,164.9908h-72.423c-1.5217,0-2.7554-1.2336-2.7554-2.7554v-20.3831
				c0-1.5219,1.2338-2.7554,2.7554-2.7554h25.1951c1.0029,0,1.9266,0.5451,2.4116,1.423c1.7322,3.1353,5.0288,5.0832,8.6033,5.0832
				c3.5765,0,6.8745-1.9478,8.6067-5.0832c0.485-0.8779,1.4087-1.423,2.4116-1.423h25.1947c1.5217,0,2.7555,1.2336,2.7555,2.7554
				v20.3831C1092.214,163.7572,1090.9802,164.9908,1089.4585,164.9908z M1019.791,159.48h66.9122v-14.8723h-20.9183
				c-2.8542,4.0499-7.5209,6.5061-12.5393,6.5061c-5.0167,0-9.6816-2.4562-12.5359-6.5061h-20.9186V159.48z"/>
			<path class="st1" d="M1053.2455,151.1138c-5.5797,0-10.7246-3.0383-13.4266-7.9291c-1.2455-2.2539-1.9037-4.8146-1.9037-7.4049
				c0-8.4533,6.8771-15.3304,15.3303-15.3304c8.455,0,15.3337,6.8771,15.3337,15.3304c0,2.5903-0.6582,5.151-1.9037,7.4049
				C1063.9735,148.0755,1058.8273,151.1138,1053.2455,151.1138z M1053.2455,125.9603c-5.4147,0-9.8196,4.4051-9.8196,9.8195
				c0,1.6843,0.4094,3.279,1.2163,4.7399c1.7322,3.1353,5.0288,5.0832,8.6033,5.0832c3.5765,0,6.8745-1.9478,8.6067-5.0832
				c0.8069-1.461,1.2163-3.0556,1.2163-4.7399C1063.0685,130.3654,1058.6619,125.9603,1053.2455,125.9603z"/>
			<path class="st1" d="M1090.9751,184.9382h-76.7579c-1.5217,0-2.7554-1.2336-2.7554-2.7554c0-1.5219,1.2338-2.7554,2.7554-2.7554
				h76.7579c1.5217,0,2.7555,1.2336,2.7555,2.7554C1093.7306,183.7046,1092.4968,184.9382,1090.9751,184.9382z"/>
			<path class="st1" d="M1072.9983,215.2944h-27.124c-1.5216,0-2.7554-1.2336-2.7554-2.7554c0-1.5219,1.2338-2.7554,2.7554-2.7554
				h27.124c1.5217,0,2.7555,1.2336,2.7555,2.7554C1075.7538,214.0609,1074.52,215.2944,1072.9983,215.2944z"/>
			<path class="st1" d="M1029.106,215.2944h-14.8887c-1.5217,0-2.7554-1.2336-2.7554-2.7554c0-1.5219,1.2338-2.7554,2.7554-2.7554
				h14.8887c1.5217,0,2.7555,1.2336,2.7555,2.7554C1031.8615,214.0609,1030.6277,215.2944,1029.106,215.2944z"/>
			<path class="st1" d="M1090.9751,245.6508h-76.7579c-1.5217,0-2.7554-1.2336-2.7554-2.7554c0-1.5219,1.2338-2.7554,2.7554-2.7554
				h76.7579c1.5217,0,2.7555,1.2336,2.7555,2.7554C1093.7306,244.4173,1092.4968,245.6508,1090.9751,245.6508z"/>
			<path class="st1" d="M1090.9751,276.0071h-16.479c-1.5216,0-2.7554-1.2336-2.7554-2.7554c0-1.5218,1.2338-2.7554,2.7554-2.7554
				h16.479c1.5217,0,2.7555,1.2336,2.7555,2.7554C1093.7306,274.7735,1092.4968,276.0071,1090.9751,276.0071z"/>
			<path class="st1" d="M1060.0409,276.0071h-45.8237c-1.5217,0-2.7554-1.2336-2.7554-2.7554c0-1.5218,1.2338-2.7554,2.7554-2.7554
				h45.8237c1.5217,0,2.7554,1.2336,2.7554,2.7554C1062.7963,274.7735,1061.5626,276.0071,1060.0409,276.0071z"/>
			<path class="st1" d="M1086.9762,229.0477c-0.5664,0-1.1378-0.1741-1.6293-0.5351l-13.9769-10.2708
				c-0.589-0.4329-0.9818-1.0817-1.0922-1.8042c-0.1102-0.7223,0.0707-1.4591,0.5035-2.0479l54.9572-74.7822
				c1.8055-2.4598,4.4634-4.0687,7.4829-4.5295c3.0164-0.4618,6.0334,0.2809,8.4926,2.0879
				c2.9189,2.1453,4.6613,5.5904,4.6613,9.2156c0,2.447-0.7672,4.7847-2.2192,6.7602l-54.9572,74.782
				C1088.6591,228.6585,1087.8231,229.0477,1086.9762,229.0477z M1076.8536,215.4325l9.5364,7.0076l53.3253-72.5618
				c0.7518-1.0229,1.149-2.2321,1.149-3.4969c0-1.9071-0.8799-3.6476-2.4141-4.7752c-1.2727-0.9354-2.8354-1.3194-4.3975-1.0806
				c-1.5631,0.2385-2.9384,1.071-3.8728,2.3441L1076.8536,215.4325z"/>
			<path class="st1" d="M1070.4888,236.8415c-0.5771,0-1.1504-0.1811-1.632-0.5351c-0.8157-0.5994-1.2368-1.5975-1.0975-2.6
				l2.5132-18.0656c0.1339-0.9613,0.7635-1.7813,1.6576-2.1589c0.8947-0.3772,1.9216-0.2565,2.7032,0.3184l13.9777,10.2723
				c0.7823,0.5748,1.2041,1.5186,1.111,2.4848c-0.0931,0.9662-0.6879,1.8119-1.5654,2.2267l-16.4908,7.7934
				C1071.291,236.7544,1070.889,236.8415,1070.4888,236.8415z M1075.0941,220.9777l-1.1742,8.4391l7.7035-3.6405L1075.0941,220.9777
				z"/>
			<path class="st1" d="M973.342,163.4946c-1.5217,0-2.7554-1.2336-2.7554-2.7554c0-6.5784-5.5576-12.136-12.136-12.136
				c-1.5217,0-2.7554-1.2336-2.7554-2.7554s1.2337-2.7554,2.7554-2.7554c6.5785,0,12.136-5.5576,12.136-12.136
				c0-1.5218,1.2338-2.7554,2.7554-2.7554s2.7554,1.2336,2.7554,2.7554c0,6.5784,5.5576,12.136,12.136,12.136
				c1.5217,0,2.7554,1.2336,2.7554,2.7554s-1.2338,2.7554-2.7554,2.7554c-6.5784,0-12.136,5.5576-12.136,12.136
				C976.0974,162.261,974.8636,163.4946,973.342,163.4946z M967.774,145.8477c2.233,1.425,4.1432,3.3348,5.568,5.5679
				c1.4248-2.2331,3.335-4.1429,5.5681-5.5679c-2.2331-1.425-4.1432-3.3348-5.5681-5.5679
				C971.9172,142.513,970.007,144.4228,967.774,145.8477z"/>
		</g>
		<g>
			<path class="st1" d="M331.9955,883.2527h-51.051c-1.5219,0-2.7554-1.2338-2.7554-2.7554v-128.816
				c0-1.5217,1.2336-2.7554,2.7554-2.7554h57.8639c1.5219,0,2.7554,1.2338,2.7554,2.7554v104.4581
				c0,1.1611-0.7281,2.1978-1.8204,2.592c-0.3266,0.1177-0.6315,0.2408-0.9061,0.3653c-6.4239,2.8779-9.3039,10.4314-6.4316,16.8436
				c0.4547,1.0148,1.0377,1.965,1.7325,2.8247c0.6675,0.8254,0.8012,1.9613,0.3438,2.9196
				C334.0246,882.6425,333.0573,883.2527,331.9955,883.2527z M283.7,877.7418h43.4815c-3.7098-8.91,0.1983-19.2139,8.8715-23.4268
				v-99.8784H283.7V877.7418z"/>
			<path class="st1" d="M346.0414,754.4367h-72.3298c-1.5219,0-2.7554-1.2338-2.7554-2.7554v-28.9319
				c0-1.5217,1.2336-2.7554,2.7554-2.7554h72.3298c1.5218,0,2.7554,1.2338,2.7554,2.7554v28.9319
				C348.7968,753.2029,347.5632,754.4367,346.0414,754.4367z M276.467,748.9258h66.819v-23.4211h-66.819V748.9258z"/>
			<path class="st1" d="M338.8084,844.6768h-43.0535c-1.5219,0-2.7554-1.2337-2.7554-2.7554v-61.3081
				c0-1.5217,1.2336-2.7554,2.7554-2.7554h43.0535c1.5219,0,2.7554,1.2338,2.7554,2.7554v61.3081
				C341.5638,843.4431,340.3303,844.6768,338.8084,844.6768z M298.5104,839.166h37.5426v-55.7973h-37.5426V839.166z"/>
			<path class="st1" d="M338.8084,795.768h-32.7206c-1.5218,0-2.7554-1.2337-2.7554-2.7554s1.2336-2.7554,2.7554-2.7554h32.7206
				c1.5219,0,2.7554,1.2338,2.7554,2.7554S340.3303,795.768,338.8084,795.768z"/>
			<path class="st1" d="M328.4756,814.0227h-22.3878c-1.5218,0-2.7554-1.2338-2.7554-2.7554s1.2336-2.7554,2.7554-2.7554h22.3878
				c1.5218,0,2.7554,1.2338,2.7554,2.7554S329.9974,814.0227,328.4756,814.0227z"/>
			<path class="st1" d="M328.4756,829.8664H314.354c-1.5218,0-2.7554-1.2338-2.7554-2.7554s1.2336-2.7554,2.7554-2.7554h14.1216
				c1.5218,0,2.7554,1.2338,2.7554,2.7554S329.9974,829.8664,328.4756,829.8664z"/>
			<g>
				<path class="st1" d="M329.8911,879.8222c-0.3323,0-0.665-0.0602-0.9815-0.1806c-0.683-0.2604-1.2344-0.7814-1.5331-1.4484
					c-4.1146-9.1855,0.011-20.0057,9.1965-24.1207c0.4013-0.1819,0.8305-0.3555,1.3004-0.525
					c8.9225-3.2078,18.9471,1.0632,22.8241,9.7217c0.6217,1.3888,0,3.0191-1.3888,3.6411l-28.2908,12.6711
					C330.66,879.7415,330.2758,879.8222,329.8911,879.8222z M343.9977,857.9901c-1.4198,0-2.8578,0.2395-4.2571,0.7423
					c-0.3238,0.1168-0.6287,0.2395-0.9033,0.3643c-5.5589,2.4904-8.4641,8.4825-7.2843,14.2059l22.7114-10.1721
					C351.8437,859.8857,347.9941,857.9901,343.9977,857.9901z"/>
				<path class="st1" d="M344.0473,888.9832c-5.383,0-10.6476-2.3773-14.1923-6.751c-0.9959-1.2318-1.8291-2.5896-2.4783-4.0386
					c-0.2989-0.667-0.3206-1.4251-0.0604-2.1083c0.2603-0.6828,0.7812-1.2341,1.4482-1.5331l28.2919-12.6719
					c1.3881-0.6209,3.0186-0.0003,3.6407,1.3885c4.1148,9.1852-0.0106,20.0057-9.1963,24.1207
					c-0.0002,0-0.0003,0.0003-0.0005,0.0003C349.0992,888.4648,346.5601,888.9832,344.0473,888.9832z M350.3743,884.8749h0.0034
					H350.3743z M333.8041,878.3328c0.1083,0.1463,0.2197,0.2906,0.3342,0.4322c3.6263,4.4739,9.8409,5.9539,15.1096,3.5953l0,0
					c3.1064-1.3915,5.485-3.9095,6.6975-7.0897c0.8784-2.304,1.0688-4.756,0.5779-7.1132L333.8041,878.3328z"/>
			</g>
			<g>
				<path class="st1" d="M289.8997,746.5148c-1.5218,0-2.7554-1.2337-2.7554-2.7554v-13.4327c0-1.5217,1.2336-2.7554,2.7554-2.7554
					c1.5219,0,2.7554,1.2337,2.7554,2.7554v13.4327C292.6551,745.2811,291.4215,746.5148,289.8997,746.5148z"/>
				<path class="st1" d="M309.8765,746.5148c-1.5219,0-2.7554-1.2337-2.7554-2.7554v-13.4327c0-1.5217,1.2336-2.7554,2.7554-2.7554
					c1.5218,0,2.7554,1.2337,2.7554,2.7554v13.4327C312.6319,745.2811,311.3983,746.5148,309.8765,746.5148z"/>
				<path class="st1" d="M329.8533,746.5148c-1.5219,0-2.7554-1.2337-2.7554-2.7554v-13.4327c0-1.5217,1.2336-2.7554,2.7554-2.7554
					c1.5218,0,2.7554,1.2337,2.7554,2.7554v13.4327C332.6087,745.2811,331.3751,746.5148,329.8533,746.5148z"/>
			</g>
			<path class="st1" d="M379.5789,740.4399c-1.5219,0-2.7554-1.2338-2.7554-2.7554c0-6.5784-5.5578-12.136-12.1362-12.136
				c-1.5219,0-2.7554-1.2337-2.7554-2.7554s1.2336-2.7554,2.7554-2.7554c6.5784,0,12.1362-5.5576,12.1362-12.136
				c0-1.5217,1.2336-2.7554,2.7554-2.7554c1.5218,0,2.7554,1.2338,2.7554,2.7554c0,6.5784,5.5576,12.136,12.136,12.136
				c1.5219,0,2.7554,1.2338,2.7554,2.7554s-1.2336,2.7554-2.7554,2.7554c-6.5784,0-12.136,5.5576-12.136,12.136
				C382.3344,739.2062,381.1008,740.4399,379.5789,740.4399z M374.0109,722.7931c2.2331,1.4248,4.143,3.335,5.568,5.568
				c1.425-2.233,3.3348-4.1432,5.5678-5.568c-2.2331-1.4248-4.1429-3.335-5.5678-5.5681
				C378.154,719.4581,376.244,721.3683,374.0109,722.7931z"/>
		</g>
	</g>
</g>
</svg>
