<?xml version="1.0" encoding="UTF-8"?>
<svg xmlns="http://www.w3.org/2000/svg" xmlns:xlink="http://www.w3.org/1999/xlink" width="144px" height="144px" viewBox="0 0 144 144" version="1.1">
<path style=" stroke:none;fill-rule:nonzero;fill:rgb(52.941179%,29.803923%,33.725491%);fill-opacity:1;" d="M 119.589844 20.945312 L 125.703125 40.152344 C 123.734375 40.78125 121.984375 41.648438 121.027344 42.472656 C 120.6875 42.761719 118.945312 44.570312 117.933594 51.5625 C 117.113281 57.214844 117.121094 63.664062 117.125 69.355469 L 117.125 70.734375 C 117.125 89.25 102.125 104.785156 82.078125 108.753906 L 82.078125 144 L 61.917969 144 L 61.917969 108.753906 C 41.875 104.785156 26.871094 89.25 26.871094 70.734375 L 26.871094 69.355469 C 26.878906 63.664062 26.882812 57.21875 26.066406 51.5625 C 25.050781 44.570312 23.308594 42.761719 22.96875 42.46875 C 22.011719 41.648438 20.265625 40.78125 18.292969 40.152344 L 24.410156 20.945312 C 27.628906 21.96875 32.273438 23.882812 36.113281 27.179688 C 47.066406 36.601562 47.046875 55.542969 47.035156 69.378906 L 47.03125 70.734375 C 47.03125 78.265625 53.242188 84.929688 61.921875 87.917969 L 61.921875 0 L 82.078125 0 L 82.078125 87.917969 C 90.757812 84.929688 96.96875 78.265625 96.96875 70.738281 L 96.96875 69.378906 C 96.953125 55.542969 96.933594 36.601562 107.886719 27.183594 C 111.726562 23.882812 116.371094 21.96875 119.589844 20.945312 Z M 119.589844 20.945312 "/>
</svg>
